<svg width="40" height="41" viewBox="0 0 40 41" fill="none" xmlns="http://www.w3.org/2000/svg">
<g clip-path="url(#clip0_183_137)">
<path fill-rule="evenodd" clip-rule="evenodd" d="M20 0.932861C8.95431 0.932861 0 9.88717 0 20.9329C0 31.9786 8.95431 40.9329 20 40.9329C31.0457 40.9329 40 31.9786 40 20.9329C40 9.88717 31.0457 0.932861 20 0.932861ZM12.5835 14.2662C12.5835 12.011 14.4117 10.1829 16.6668 10.1829H23.3335C25.5887 10.1829 27.4168 12.011 27.4168 14.2662C27.4168 15.6425 26.7359 16.8598 25.6926 17.5995C26.7359 18.3393 27.4168 19.5566 27.4168 20.9329C27.4168 23.1881 25.5887 25.0162 23.3335 25.0162C22.3534 25.0162 21.4539 24.6709 20.7502 24.0953V27.5996C20.7502 29.8547 18.922 31.6829 16.6668 31.6829C14.4117 31.6829 12.5835 29.8547 12.5835 27.5996C12.5835 26.2232 13.2644 25.006 14.3078 24.2662C13.2644 23.5265 12.5835 22.3092 12.5835 20.9329C12.5835 19.5566 13.2644 18.3393 14.3078 17.5995C13.2644 16.8598 12.5835 15.6425 12.5835 14.2662ZM16.6668 23.5162H19.2502V20.9329V18.3495L16.6668 18.3495C15.2401 18.3495 14.0835 19.5062 14.0835 20.9329C14.0835 22.3596 15.2401 23.5162 16.6668 23.5162ZM19.2502 16.8495H16.6668C15.2401 16.8495 14.0835 15.6929 14.0835 14.2662C14.0835 12.8395 15.2401 11.6829 16.6668 11.6829H19.2502V16.8495ZM23.3363 16.8495C24.7617 16.848 25.9168 15.692 25.9168 14.2662C25.9168 12.8395 24.7602 11.6829 23.3335 11.6829H20.7502V16.8495H22.0432L23.3363 16.8495ZM23.3303 18.3495C21.9061 18.3512 20.7519 19.5055 20.7502 20.9297V20.9361C20.7519 22.3613 21.9078 23.5162 23.3335 23.5162C24.7602 23.5162 25.9168 22.3596 25.9168 20.9329C25.9168 19.507 24.7616 18.3509 23.336 18.3495H23.3303ZM14.0835 27.5996C14.0835 26.1728 15.2401 25.0162 16.6668 25.0162H19.2502V27.5996C19.2502 29.0263 18.0936 30.1829 16.6668 30.1829C15.2401 30.1829 14.0835 29.0263 14.0835 27.5996Z" fill="#D8F2FF"/>
</g>
<defs>
<clipPath id="clip0_183_137">
<rect width="40" height="40" fill="white" transform="translate(0 0.932861)"/>
</clipPath>
</defs>
</svg>
