<svg width="40" height="40" viewBox="0 0 40 40" fill="none" xmlns="http://www.w3.org/2000/svg">
<path d="M25.0078 19.7968C24.3359 19.6796 23.6327 19.6952 22.9452 19.7343C21.3827 19.8202 19.8202 19.9686 18.2577 19.828C17.5156 19.7577 16.7656 19.6874 16.0156 19.703C14.6562 19.7264 13.5156 20.1718 12.8437 21.4686C12.5077 22.1093 12.4296 22.7968 12.4531 23.5077C12.5077 25.5077 13.3749 26.6483 15.2812 27.2186C16.8124 27.6718 18.3828 27.7343 19.9609 27.703C20.5468 27.703 21.1327 27.7343 21.7187 27.6952C22.9296 27.6249 24.1171 27.4452 25.2656 27.0233C26.4531 26.5858 27.164 25.7499 27.4218 24.5389C27.5234 24.0702 27.5703 23.578 27.5624 23.1014C27.5468 21.4843 26.4531 20.0389 25.0078 19.7968ZM17.3202 25.0858C16.8124 25.6405 16.0781 25.6483 15.5546 25.1093C15.1718 24.7186 14.9531 24.1171 14.9531 23.3671C14.9687 22.8593 15.1171 22.3046 15.5546 21.8593C16.0781 21.3202 16.8124 21.328 17.3202 21.8749C18.0859 22.703 18.0859 24.2577 17.3202 25.0858ZM24.4218 25.1249C23.9453 25.6171 23.2577 25.6327 22.7499 25.1796C21.8749 24.3827 21.8749 22.6093 22.7499 21.8046C23.2499 21.3436 23.9374 21.3593 24.4218 21.8514C24.8671 22.3046 25.0156 22.8749 25.039 23.4843C25.0156 24.1014 24.8593 24.6639 24.4218 25.1249Z" fill="#D8F2FF"/>
<path d="M20 0C8.95312 0 0 8.95312 0 20C0 31.0469 8.95312 40 20 40C31.0469 40 40 31.0469 40 20C40 8.95312 31.0469 0 20 0ZM30.25 21.75C30.1406 22.6406 29.9531 23.5547 29.6328 24.3906C28.6953 26.7891 26.8203 28.1094 24.3359 28.5078C22.9141 28.7344 21.4531 28.7422 19.875 28.8594C18.4609 28.7344 16.9062 28.7188 15.3984 28.4531C12.4766 27.9375 10.4922 25.8906 9.91406 22.9609C9.61719 21.4688 9.53125 19.9688 9.99219 18.4844C10.2344 17.7188 10.6328 17.0391 11.1484 16.4219C11.2188 16.3438 11.2812 16.2266 11.2734 16.125C11.1875 14.7812 11.3438 13.4531 11.7422 12.1719C12.0703 11.1016 11.8281 11.1641 13.0156 11.4766C14.4453 11.8516 15.6953 12.625 16.9219 13.4297C17.0625 13.5234 17.2812 13.5625 17.4531 13.5313C19.1875 13.2656 20.9141 13.25 22.6484 13.5547C22.7734 13.5781 22.9375 13.5312 23.0547 13.4609C24.1094 12.7734 25.1953 12.1562 26.3828 11.7266C26.8125 11.5703 27.2656 11.4688 27.7031 11.3359C27.8984 11.2813 27.9844 11.3516 28.0547 11.5391C28.5859 13.0234 28.8047 14.5469 28.7266 16.1172C28.7188 16.2031 28.7656 16.3203 28.8203 16.3906C30.1562 17.9375 30.4922 19.7812 30.25 21.75Z" fill="#D8F2FF"/>
</svg>
