<svg width="500" height="500" viewBox="0 0 500 500" fill="none" xmlns="http://www.w3.org/2000/svg">
<path opacity="0.41" d="M194.579 325.73C190.512 325.713 186.44 325.55 182.364 325.216C137.692 321.554 85.9409 300.223 63.6979 261.385C44.2519 227.432 36.6169 183.474 45.4709 145.607C53.7939 110.012 79.5979 81.178 115.731 70.229C156.367 57.916 201.279 72.877 241.265 56.061C299.464 31.586 372.613 51.023 413.401 97.59C449.564 138.876 458.317 205.449 446.965 257.031C441.228 283.101 426.136 308.208 402.113 321.333C382.999 331.776 359.894 333.835 338.037 331.113C320.463 328.925 304.283 323.193 287.377 318.476C273.826 314.695 262.707 316.663 248.837 319.408C230.987 322.94 212.837 325.806 194.579 325.73Z" fill="#AFAFAF"/>
<path d="M204.551 300.82C201.26 300.806 197.965 300.674 194.667 300.404C158.519 297.441 116.644 280.18 98.6458 248.754C82.9108 221.28 76.7318 185.71 83.8968 155.069C90.6318 126.266 111.512 102.934 140.75 94.075C173.632 84.112 209.974 96.218 242.329 82.611C289.422 62.807 348.613 78.535 381.618 116.215C410.88 149.623 417.963 203.492 408.777 245.231C404.135 266.326 391.922 286.642 372.483 297.263C357.016 305.713 338.321 307.379 320.634 305.177C306.413 303.406 293.321 298.769 279.641 294.951C268.676 291.891 259.678 293.484 248.455 295.705C234.012 298.563 219.325 300.881 204.551 300.82Z" stroke="white" stroke-width="1.9456" stroke-miterlimit="10" stroke-dasharray="3.85 3.85"/>
<path opacity="0.87" d="M415.72 440.138C425.436 440.138 433.312 439.539 433.312 438.801C433.312 438.063 425.436 437.464 415.72 437.464C406.004 437.464 398.128 438.063 398.128 438.801C398.128 439.539 406.004 440.138 415.72 440.138Z" fill="#515159"/>
<path d="M417.953 388.219C417.953 388.219 402.891 377.986 412.566 363.112C422.241 348.238 419.822 343.069 416.436 338.881C424.659 348.238 422.857 358.899 417.953 365.662C413.049 372.424 412.272 381.627 417.953 388.219Z" fill="#AFAFAF"/>
<path d="M430.242 400.916H401.198L404.033 437.685H427.407L430.242 400.916Z" fill="#FEFEFE"/>
<path d="M433.312 399.035H398.128V403.347H433.312V399.035Z" fill="#8B8B8C"/>
<path d="M426.403 395.157H405.038C402.917 395.157 401.198 396.876 401.198 398.997V399.036H430.243V398.997C430.242 396.876 428.523 395.157 426.403 395.157Z" fill="#5A5A63"/>
<path d="M428.627 421.864L429.314 412.957H402.126L402.813 421.864H428.627Z" fill="#0900FF"/>
<path d="M430.242 399.035V398.996C430.242 396.875 428.523 395.156 426.402 395.156H415.821C417.942 395.156 419.661 396.875 419.661 398.996V399.035H422.73V403.347H419.473L416.826 437.684H427.407L430.055 403.347H433.312V399.035H430.242Z" fill="#AFAFAF"/>
<path d="M274.313 170.388C274.313 170.388 280.4 151.299 271.507 145.756C265.854 142.851 262.765 146.47 262.765 146.47C262.765 146.47 260.107 132.973 241.79 137.432C229.925 140.32 226.183 134.204 226.183 134.204C226.183 134.204 226.072 151.123 234.243 156.154C240.159 161.227 237.89 174.94 237.89 174.94L274.313 170.388Z" fill="#2F2F35"/>
<path opacity="0.87" d="M328.274 419.842C328.274 419.842 361.251 420.833 370.454 429.328C380.133 438.263 390.287 452.215 348.621 451.946C306.955 451.677 270.018 440.209 235.072 443.849C200.126 447.488 171.449 453.763 163.095 452.371C154.741 450.979 214.286 422.454 214.286 422.454L324.837 426.511L328.274 419.842Z" fill="#515159"/>
<path d="M297.43 345.666L255.858 341.49L214.286 345.666C214.286 345.666 211.817 365.309 203.789 375.788C255.858 394.488 255.858 394.488 255.858 394.488C255.858 394.488 255.858 394.488 307.927 375.788C299.9 365.309 297.43 345.666 297.43 345.666Z" fill="#361DA8"/>
<path d="M254.216 393.898C255.856 394.487 255.858 394.488 255.858 394.488C255.858 394.488 255.86 394.487 257.498 393.899C267.078 371.86 264.786 347.134 264.218 342.33L255.859 341.49L245.16 342.565C244.946 347.846 244.589 372 254.216 393.898Z" fill="#361DA8"/>
<path d="M214.05 347.269C214.052 347.27 257.795 366.563 300.041 358.178C298.143 351.32 297.431 345.666 297.431 345.666L255.859 341.49L222.464 344.845L214.05 347.269Z" fill="#895436"/>
<path d="M234.242 156.153C240.158 161.226 237.889 174.939 237.889 174.939L245.628 173.972C253.576 166.899 262.548 157.944 261.245 154.571C258.962 148.659 252.368 142.758 240.209 142.083C228.05 141.408 226.182 134.203 226.182 134.203C226.182 134.203 226.071 151.122 234.242 156.153Z" fill="#515159"/>
<path d="M254.349 204.055L219.981 216.584L214.286 345.667C214.286 345.667 226.435 351.362 255.858 351.362C255.858 217.196 255.858 206.06 255.858 206.06L254.349 204.055Z" fill="white"/>
<path d="M257.367 204.055L291.735 216.584L297.43 345.667C297.43 345.667 285.281 351.362 255.858 351.362C255.858 217.196 255.858 206.06 255.858 206.06L257.367 204.055Z" fill="white"/>
<path d="M219.981 216.584L219.822 216.641C209.783 220.226 201.761 227.942 197.788 237.834L160.897 327.123L192.267 330.861L218.823 265.776L219.981 216.584Z" fill="#FF7E6E"/>
<path d="M291.735 216.584L291.895 216.641C301.934 220.226 309.956 227.942 313.929 237.834L350.82 327.123L319.45 330.861L292.894 265.776L291.735 216.584Z" fill="#FF7E6E"/>
<path d="M328.254 272.504L313.929 237.833C309.956 227.941 301.934 220.226 291.895 216.64L291.735 216.583L292.894 265.774L300.417 284.212C310.46 275.801 320.536 273.07 328.254 272.504Z" fill="#E8E8E8"/>
<path d="M183.462 272.504L197.787 237.833C201.76 227.941 209.782 220.226 219.821 216.64L219.981 216.583L218.822 265.774L211.299 284.212C201.256 275.801 191.18 273.07 183.462 272.504Z" fill="#E8E8E8"/>
<path d="M293.981 267.475C293.981 267.475 293.05 266.171 291.736 263.728L292.895 265.774C292.895 265.774 279.819 338.35 244.864 351.073C248.225 351.253 251.878 351.36 255.859 351.36C285.282 351.36 297.431 345.665 297.431 345.665L293.981 267.475Z" fill="#D3D3D3"/>
<path opacity="0.52" d="M203.789 257.966C212.654 233.099 213.147 233.289 232.51 228.733C251.872 224.177 248.065 206.347 248.065 206.347L230.013 212.927L227.221 213.945L219.981 216.584L219.821 216.641C209.782 220.226 201.76 227.942 197.787 237.833L162.425 323.422C177.359 312.429 196.238 279.145 203.789 257.966Z" fill="#E7E9FF"/>
<path opacity="0.28" d="M307.927 257.966C299.062 233.099 298.569 233.289 279.206 228.733C259.844 224.177 263.651 206.347 263.651 206.347L281.703 212.927L284.495 213.945L291.734 216.584L291.894 216.641C301.933 220.226 309.955 227.942 313.928 237.833L349.29 323.422C334.357 312.429 315.478 279.145 307.927 257.966Z" fill="#2E294C"/>
<path d="M255.951 219.98H255.765C250.685 219.98 246.566 215.862 246.566 210.781V188.818H265.149V210.781C265.15 215.862 261.031 219.98 255.951 219.98Z" fill="#FF7E6E"/>
<path d="M265.001 205.758C265.054 205.758 265.098 205.752 265.15 205.751V188.818H256.475L246.566 192.399C246.566 192.399 250.254 205.758 265.001 205.758Z" fill="#2E294C"/>
<path d="M277.474 175.624C277.474 178.92 274.803 181.591 271.507 181.591C268.212 181.591 265.54 178.92 265.54 175.624C265.54 172.328 268.212 169.657 271.507 169.657C274.802 169.657 277.474 172.328 277.474 175.624Z" fill="#C64F4F"/>
<path d="M272.668 181.474C273.53 178.015 274.036 173.59 274.312 170.388C273.472 169.937 272.526 169.657 271.506 169.657C268.211 169.657 265.539 172.329 265.539 175.624C265.539 178.92 268.211 181.591 271.506 181.591C271.905 181.591 272.292 181.548 272.668 181.474Z" fill="#803D3D"/>
<path d="M234.242 175.624C234.242 178.92 236.914 181.591 240.209 181.591C243.505 181.591 246.176 178.92 246.176 175.624C246.176 172.328 243.505 169.657 240.209 169.657C236.914 169.657 234.242 172.328 234.242 175.624Z" fill="#C64F4F"/>
<path d="M239.048 181.474C238.185 178.015 237.68 173.59 237.404 170.388C238.244 169.937 239.19 169.657 240.21 169.657C243.506 169.657 246.177 172.329 246.177 175.624C246.177 178.92 243.505 181.591 240.21 181.591C239.812 181.591 239.424 181.548 239.048 181.474Z" fill="#803D3D"/>
<path d="M266.36 154.754H255.858H245.356L240.158 166.111L241.032 177.351C241.499 183.349 245.374 193.706 250.826 196.251C252.446 197.007 254.162 197.511 255.858 197.511C257.554 197.511 259.27 197.007 260.89 196.251C266.342 193.706 270.217 183.35 270.684 177.351L271.558 166.111L266.36 154.754Z" fill="#FF7E6E"/>
<path d="M261.245 169.011C261.245 169.011 264.769 169.999 268.756 169.011" stroke="#2F2F35" stroke-width="1.3362" stroke-miterlimit="10" stroke-linecap="round"/>
<path d="M260.107 162.552C260.107 162.552 265.254 161.696 268.348 163.479" stroke="#2F2F35" stroke-width="2.6723" stroke-miterlimit="10" stroke-linecap="round"/>
<path d="M250.471 169.011C250.471 169.011 246.947 169.999 242.959 169.011" stroke="#2F2F35" stroke-width="1.3362" stroke-miterlimit="10" stroke-linecap="round"/>
<path d="M251.609 162.552C251.609 162.552 246.462 161.696 243.368 163.479" stroke="#2F2F35" stroke-width="2.6723" stroke-miterlimit="10" stroke-linecap="round"/>
<path opacity="0.52" d="M247.489 178.805C246.803 167.448 245.356 154.754 245.356 154.754L240.158 166.111L240.436 169.679C240.359 169.676 240.287 169.656 240.21 169.656C236.915 169.656 234.243 172.328 234.243 175.623C234.243 178.919 236.915 181.59 240.21 181.59C240.732 181.59 241.23 181.502 241.712 181.376C243.117 187.181 246.465 194.215 250.827 196.251C252.447 197.007 254.163 197.511 255.859 197.511C255.859 197.511 248.175 190.163 247.489 178.805Z" fill="#E7E9FF"/>
<path d="M291.735 396.16L172.967 360.126C157.197 355.341 140.612 364.625 136.444 380.568L136.287 381.17C131.993 397.597 142.645 414.192 159.37 417.115C203.283 424.791 282.876 437.845 324.766 439.441L342.424 451.213C345.09 452.991 348.63 452.698 350.968 450.506L351.059 450.421C353.837 447.817 353.979 443.454 351.376 440.674L348.622 437.733C348.622 437.733 346.167 425.774 334.043 420.648C321.919 415.523 320.78 402.994 317.933 396.16C315.084 389.326 296.861 385.91 291.735 396.16Z" fill="#8C4242"/>
<path d="M136.444 380.568C140.612 364.624 157.198 355.341 172.967 360.126L213.244 372.346C207.177 379.915 199.175 395.279 198.933 423.793C184.228 421.403 170.623 419.082 159.369 417.115C142.644 414.192 131.992 397.596 136.286 381.17L136.444 380.568Z" fill="#0900FF"/>
<path opacity="0.67" d="M173.91 405.618C173.91 410.461 172.748 415.031 170.7 419.075C166.723 418.393 162.918 417.735 159.37 417.115C142.645 414.192 131.993 397.596 136.287 381.17L136.444 380.568C136.818 379.136 137.296 377.76 137.861 376.441C139.867 376.015 141.946 375.787 144.079 375.787C160.554 375.788 173.91 389.143 173.91 405.618Z" fill="#361DA8"/>
<path d="M297.43 412.675C297.43 412.675 295.722 422.628 279.207 419.075" stroke="#7B3C38" stroke-width="1.139" stroke-miterlimit="10"/>
<path opacity="0.28" d="M307.927 408.119C307.927 408.119 282.623 406.98 229.092 397.431C185.723 389.695 173.001 367.496 169.733 359.346C170.812 359.544 171.891 359.799 172.966 360.125L291.734 396.159C296.86 385.908 315.083 389.325 317.93 396.159C320.777 402.993 321.916 415.521 334.04 420.647C346.164 425.772 348.619 437.732 348.619 437.732C348.619 437.732 336.153 429.759 328.272 428.051C320.391 426.343 307.927 408.119 307.927 408.119Z" fill="#2E294C"/>
<path d="M313.407 438.801C313.407 438.801 335.216 459.668 353.809 451.081C356.903 449.653 357.872 445.702 355.852 442.959C340.19 421.688 320.443 398.515 312.916 389.806C311.032 387.626 308.049 386.745 305.282 387.549L283.863 393.771L313.407 438.801Z" fill="#2F2F35"/>
<path d="M283.863 393.772L263.348 387.547L278.888 435.368L313.407 438.801L283.863 393.772Z" fill="#A5A5A5"/>
<path d="M219.981 396.16L338.75 360.126C354.52 355.341 371.105 364.625 375.273 380.568L375.43 381.17C379.724 397.597 369.072 414.192 352.347 417.115C308.434 424.791 228.841 437.845 186.951 439.441L169.293 451.213C166.627 452.991 163.087 452.698 160.749 450.506L160.658 450.421C157.88 447.817 157.738 443.454 160.341 440.674L163.095 437.733C163.095 437.733 165.55 425.774 177.674 420.648C189.798 415.523 190.937 402.994 193.784 396.16C196.632 389.326 214.855 385.91 219.981 396.16Z" fill="#FF7E6E"/>
<path d="M375.272 380.568C371.104 364.624 354.518 355.341 338.749 360.126L298.472 372.346C304.539 379.915 312.541 395.279 312.782 423.793C327.487 421.403 341.092 419.082 352.346 417.115C369.071 414.192 379.723 397.596 375.429 381.17L375.272 380.568Z" fill="#0900FF"/>
<path opacity="0.67" d="M337.806 405.618C337.806 410.461 338.968 415.031 341.016 419.075C344.993 418.393 348.798 417.735 352.346 417.115C369.071 414.192 379.723 397.596 375.429 381.17L375.272 380.568C374.898 379.136 374.42 377.76 373.855 376.441C371.849 376.015 369.77 375.787 367.637 375.787C351.162 375.788 337.806 389.143 337.806 405.618Z" fill="#361DA8"/>
<path opacity="0.28" d="M203.789 408.119C203.789 408.119 229.093 406.98 282.624 397.431C325.993 389.695 338.715 367.496 341.983 359.346C340.904 359.544 339.825 359.799 338.75 360.125L219.981 396.16C214.856 385.909 196.632 389.326 193.785 396.16C190.938 402.994 189.799 415.522 177.675 420.648C165.551 425.773 163.096 437.733 163.096 437.733C163.096 437.733 175.562 429.76 183.443 428.052C191.323 426.343 203.789 408.119 203.789 408.119Z" fill="#2E294C"/>
<path opacity="0.57" d="M177.674 420.648L159.87 417.347C143.756 414.775 132.843 399.542 135.592 383.457L135.7 382.827C138.697 365.29 156.497 354.443 173.457 359.819L207.074 370.474" stroke="white" stroke-width="1.1139" stroke-miterlimit="10"/>
<path d="M249.752 178.619C249.112 178.619 248.736 179.361 249.129 179.866C250.912 182.155 253.272 183.554 255.867 183.554C258.462 183.554 260.822 182.155 262.605 179.866C262.998 179.361 262.622 178.619 261.982 178.619H249.752Z" fill="white"/>
<path d="M257.621 168.76V174.938C257.621 174.938 256.2 174.135 254.223 174.938" stroke="#2F2F35" stroke-width="0.8212" stroke-miterlimit="10" stroke-linecap="round"/>
<path d="M262.765 146.469H261.245V156.135H262.765V146.469Z" fill="#FF7E6E"/>
<path d="M350.82 327.122L350.883 327.296C354.443 337.152 350.179 348.123 340.897 352.989L277.474 386.235L277.161 385.425C271.573 370.99 277.418 354.64 290.89 347.018L319.451 330.86L350.82 327.122Z" fill="#FF7E6E"/>
<path opacity="0.28" d="M337.428 347.486C337.428 349.827 338.013 352.029 339.035 353.964L340.897 352.988C348.217 349.151 352.397 341.514 352.098 333.624C351.842 333.61 351.589 333.585 351.329 333.585C343.651 333.585 337.428 339.809 337.428 347.486Z" fill="#2E294C"/>
<path d="M319.45 330.86L337.428 320.665" stroke="#2E294C" stroke-width="1.3362" stroke-miterlimit="10" stroke-linecap="round"/>
<path d="M161.082 327.122L161.019 327.296C157.459 337.152 161.723 348.123 171.005 352.989L234.428 386.235L234.742 385.425C240.33 370.99 234.485 354.64 221.013 347.018L192.452 330.86L161.082 327.122Z" fill="#FF7E6E"/>
<path opacity="0.28" d="M174.473 347.486C174.473 349.827 173.889 352.029 172.867 353.964L171.005 352.988C163.685 349.151 159.506 341.514 159.804 333.624C160.06 333.61 160.312 333.585 160.572 333.585C168.249 333.585 174.473 339.809 174.473 347.486Z" fill="#2E294C"/>
<path d="M192.452 330.86L174.474 320.665" stroke="#2E294C" stroke-width="1.3362" stroke-miterlimit="10" stroke-linecap="round"/>
<path d="M227.39 382.545C227.39 382.545 230.591 364.981 220.167 359.346" stroke="#2E294C" stroke-width="1.3362" stroke-miterlimit="10" stroke-linecap="round"/>
<path d="M284.326 382.545C284.326 382.545 281.125 364.981 291.549 359.346" stroke="#2E294C" stroke-width="1.3362" stroke-miterlimit="10" stroke-linecap="round"/>
<path d="M198.309 438.801C198.309 438.801 176.5 459.668 157.907 451.081C154.814 449.653 153.844 445.702 155.864 442.959C171.526 421.688 191.272 398.515 198.8 389.806C200.684 387.626 203.667 386.745 206.434 387.549L227.853 393.771L198.309 438.801Z" fill="#2F2F35"/>
<path d="M227.854 393.772L248.368 387.547L232.828 435.368L198.309 438.801L227.854 393.772Z" fill="#ECECEC"/>
<path opacity="0.28" d="M219.322 406.775C225.407 406.126 233.311 405.175 243.088 403.795L248.368 387.548L227.854 393.772L219.322 406.775Z" fill="#2E294C"/>
<path d="M204.845 424.278L192.944 442.416C192.203 443.545 190.879 444.149 189.54 443.967L189.461 443.956C186.883 443.606 185.571 440.669 187.03 438.515L199.202 420.546C199.981 419.396 201.388 418.847 202.739 419.164L202.809 419.18C205.075 419.712 206.121 422.333 204.845 424.278Z" fill="#E7E9FF"/>
<path d="M254.223 319.447H181.391L199.348 383.408H254.223H309.098L327.055 319.447H254.223Z" fill="#AFAFAF"/>
<path d="M309.098 383.408H199.348V392.724H309.098V383.408Z" fill="#8B8B8C"/>
<path d="M254.348 365.588C264.183 365.588 272.156 361.505 272.156 356.468C272.156 351.431 264.183 347.348 254.348 347.348C244.513 347.348 236.54 351.431 236.54 356.468C236.54 361.505 244.513 365.588 254.348 365.588Z" fill="#5A5A63"/>
<path d="M327.055 315.204H181.391V319.447H327.055V315.204Z" fill="#5A5A63"/>
<path d="M216.418 386.083H205.427V389.828H216.418V386.083Z" fill="#5A5A63"/>
<path d="M232.281 386.083H221.29V389.828H232.281V386.083Z" fill="#5A5A63"/>
<path d="M309.098 388.066H242.304" stroke="#0F1201" stroke-miterlimit="10"/>
<path opacity="0.54" d="M181.391 319.447L199.348 383.409H238.437C261.647 356.499 275.749 319.447 275.749 319.447L275.701 315.204H181.391V319.447Z" fill="white"/>
<path opacity="0.57" d="M181.391 319.447H327.055" stroke="#0F1201" stroke-miterlimit="10"/>
<path opacity="0.87" d="M105.722 440.138C120.309 440.138 132.134 439.539 132.134 438.801C132.134 438.063 120.309 437.464 105.722 437.464C91.1351 437.464 79.3101 438.063 79.3101 438.801C79.3101 439.539 91.1351 440.138 105.722 440.138Z" fill="#515159"/>
<path d="M109.584 425.649L111.315 423.763L110.45 424.706L111.323 423.77C111.11 423.567 90.2661 402.435 115.444 307.21L112.968 306.555C87.2631 403.773 108.661 424.801 109.584 425.649Z" fill="#5A5A63"/>
<path d="M101.819 308.849C111.355 317.515 109.684 327.761 109.684 327.761C109.684 327.761 100.134 323.688 97.9193 310.995C97.5303 308.769 100.147 307.329 101.819 308.849Z" fill="#5A5A63"/>
<path d="M125.678 314.966C113.148 317.974 109.683 327.761 109.683 327.761C109.683 327.761 120.014 328.786 128.065 318.724C129.477 316.96 127.875 314.439 125.678 314.966Z" fill="#5A5A63"/>
<path d="M95.2854 333.753C105.644 341.417 105.011 351.779 105.011 351.779C105.011 351.779 95.1004 348.687 91.6204 336.28C91.0104 334.104 93.4684 332.409 95.2854 333.753Z" fill="#5A5A63"/>
<path d="M119.639 337.441C107.475 341.693 105.011 351.778 105.011 351.778C105.011 351.778 115.393 351.759 122.391 340.94C123.618 339.044 121.771 336.696 119.639 337.441Z" fill="#5A5A63"/>
<path d="M91.1442 355.592C102.042 362.468 102.177 372.849 102.177 372.849C102.177 372.849 92.0652 370.499 87.6762 358.383C86.9072 356.259 89.2342 354.386 91.1442 355.592Z" fill="#5A5A63"/>
<path d="M115.704 357.469C103.888 362.61 102.177 372.849 102.177 372.849C102.177 372.849 112.529 372.062 118.708 360.754C119.791 358.772 117.776 356.567 115.704 357.469Z" fill="#5A5A63"/>
<path d="M122.247 289.768C122.463 302.652 113.852 308.451 113.852 308.451C113.852 308.451 110.28 298.703 118.012 288.395C119.367 286.588 122.209 287.509 122.247 289.768Z" fill="#5A5A63"/>
<path d="M118.564 383.429H90.875V438.205H118.564V383.429Z" fill="#0900FF"/>
<path opacity="0.67" d="M118.564 383.429H107.502V438.205H118.564V383.429Z" fill="#361DA8"/>
<path d="M130.723 122.176L120.76 124.654C119.315 125.014 117.851 124.133 117.492 122.688L116.533 118.832L131.731 115.052L132.69 118.908C133.049 120.354 132.169 121.817 130.723 122.176Z" fill="#361DA8"/>
<path d="M167.745 110.295L81.6768 131.7C80.1838 132.071 78.6718 131.162 78.2998 129.668L64.1058 72.5939C63.7348 71.1009 64.6438 69.5889 66.1378 69.2169L152.206 47.8119C153.699 47.4409 155.211 48.3499 155.582 49.8439L169.776 106.918C170.148 108.412 169.238 109.923 167.745 110.295Z" fill="#361DA8"/>
<path d="M165.194 100.431L162.794 107.327L86.431 126.318L79.65 121.706L65.585 65.156L151.13 43.881L165.194 100.431Z" fill="#0900FF"/>
<path d="M107.255 54.7941L65.5801 65.157L79.6414 121.705L121.316 111.342L107.255 54.7941Z" fill="white"/>
<path d="M104.679 59.6326L70.4375 68.1471L70.9293 70.1248L105.171 61.6103L104.679 59.6326Z" fill="#AFAFAF"/>
<path d="M106.26 65.9499L72.0181 74.4679L72.51 76.4456L106.752 67.9275L106.26 65.9499Z" fill="#AFAFAF"/>
<path d="M107.826 72.2874L73.584 80.8019L74.0758 82.7796L108.317 74.265L107.826 72.2874Z" fill="#AFAFAF"/>
<path d="M109.399 78.614L75.1577 87.1285L75.6495 89.1062L109.891 80.5917L109.399 78.614Z" fill="#AFAFAF"/>
<path d="M110.981 84.9311L76.7393 93.4491L77.2312 95.4268L111.473 86.9087L110.981 84.9311Z" fill="#AFAFAF"/>
<path d="M112.545 91.2688L78.3037 99.7833L78.7955 101.761L113.037 93.2465L112.545 91.2688Z" fill="#AFAFAF"/>
<path d="M114.119 97.5955L79.8774 106.11L80.3692 108.088L114.611 99.5731L114.119 97.5955Z" fill="#AFAFAF"/>
<path d="M115.702 103.912L81.4609 112.43L81.9529 114.408L116.194 105.89L115.702 103.912Z" fill="#AFAFAF"/>
<path d="M151.125 43.8712L109.451 54.2384L123.518 110.787L165.193 100.419L151.125 43.8712Z" fill="white"/>
<path d="M148.235 48.7896L113.994 57.3076L114.486 59.2853L148.727 50.7673L148.235 48.7896Z" fill="#AFAFAF"/>
<path d="M149.804 55.1309L115.562 63.6454L116.054 65.6231L150.295 57.1085L149.804 55.1309Z" fill="#AFAFAF"/>
<path d="M151.376 61.4589L117.135 69.9734L117.627 71.9511L151.868 63.4366L151.376 61.4589Z" fill="#AFAFAF"/>
<path d="M152.957 67.7707L118.715 76.2887L119.207 78.2664L153.449 69.7483L152.957 67.7707Z" fill="#AFAFAF"/>
<path d="M154.524 74.1124L120.282 82.627L120.774 84.6046L155.016 76.0901L154.524 74.1124Z" fill="#AFAFAF"/>
<path d="M156.097 80.4403L121.855 88.9548L122.347 90.9325L156.588 82.418L156.097 80.4403Z" fill="#AFAFAF"/>
<path d="M157.679 86.7516L123.438 95.2697L123.929 97.2473L158.171 88.7293L157.679 86.7516Z" fill="#AFAFAF"/>
<path d="M159.243 93.0941L125.001 101.609L125.493 103.586L159.734 95.0718L159.243 93.0941Z" fill="#AFAFAF"/>
<path d="M128.113 118.871L121.519 120.511C120.074 120.87 118.612 119.99 118.252 118.546L117.65 116.125L129.476 113.184L130.078 115.605C130.437 117.049 129.557 118.512 128.113 118.871Z" fill="#0900FF"/>
<path d="M274.466 37.557C271.046 34.305 266.725 32.087 262.276 30.605C262.246 30.595 262.178 30.576 262.076 30.549C258.046 29.47 253.798 29.47 249.768 30.549C249.667 30.576 249.598 30.595 249.568 30.605C245.119 32.087 240.798 34.306 237.378 37.557C227.198 47.236 228.852 64.804 238.766 74.074C241.547 76.674 242.768 80.031 243.619 83.732C243.876 84.847 245.351 96.472 244.836 96.472C249.811 96.472 255.921 96.472 255.921 96.472C255.921 96.472 262.031 96.472 267.006 96.472C266.492 96.472 267.967 84.846 268.223 83.732C269.075 80.032 270.296 76.675 273.077 74.074C282.992 64.805 284.645 47.237 274.466 37.557Z" fill="#0900FF"/>
<path opacity="0.52" d="M251.935 83.732C251.084 80.032 249.862 76.675 247.082 74.074C237.168 64.804 235.514 47.236 245.694 37.557C249.114 34.305 253.435 32.087 257.884 30.605C257.914 30.595 257.982 30.576 258.084 30.549C258.744 30.372 259.41 30.235 260.08 30.116C256.66 29.509 253.138 29.646 249.768 30.549C249.667 30.576 249.598 30.595 249.568 30.605C245.119 32.087 240.797 34.306 237.378 37.557C227.198 47.236 228.852 64.804 238.766 74.074C241.547 76.674 242.768 80.031 243.619 83.732C243.876 84.847 245.351 96.472 244.836 96.472C247.693 96.472 250.918 96.472 253.152 96.472C253.667 96.472 252.192 84.846 251.935 83.732Z" fill="#E7E9FF"/>
<path d="M255.922 96.472V69.3601L260.694 66.6091C262.271 65.7001 261.956 63.3371 260.196 62.8731L251.512 60.5811C250.031 60.1901 249.863 58.1561 251.26 57.5271L255.921 55.43V46.2271" stroke="#FEFEFE" stroke-width="2.2387" stroke-miterlimit="10" stroke-linecap="round"/>
<path d="M269.213 100.203C269.213 101.027 268.545 101.695 267.721 101.695H243.345C242.521 101.695 241.853 101.027 241.853 100.203C241.853 99.3789 242.521 98.7109 243.345 98.7109H267.721C268.544 98.7109 269.213 99.3789 269.213 100.203Z" fill="#2F2F35"/>
<path d="M269.213 104.68C269.213 105.504 268.545 106.173 267.721 106.173H243.345C242.521 106.173 241.853 105.505 241.853 104.68C241.853 103.856 242.521 103.188 243.345 103.188H267.721C268.544 103.188 269.213 103.856 269.213 104.68Z" fill="#2F2F35"/>
<path d="M269.213 109.157C269.213 109.981 268.545 110.649 267.721 110.649H243.345C242.521 110.649 241.853 109.981 241.853 109.157C241.853 108.333 242.521 107.664 243.345 107.664H267.721C268.544 107.665 269.213 108.333 269.213 109.157Z" fill="#2F2F35"/>
<path d="M255.532 121.096C260.34 121.096 264.238 117.198 264.238 112.39H246.827C246.827 117.199 250.724 121.096 255.532 121.096Z" fill="#2F2F35"/>
<path d="M358.665 126.82V119.811H355.568C354.982 116.482 353.621 113.428 351.677 110.827L354.134 108.37L349.178 103.414L346.629 105.963C344.02 104.181 340.987 102.987 337.72 102.516V98.855H330.712V102.653C327.579 103.244 324.699 104.526 322.215 106.329L319.734 103.848L314.778 108.804L317.291 111.317C315.455 113.928 314.205 116.97 313.698 120.262H310.219V127.27H313.775C314.349 130.482 315.643 133.436 317.487 135.974L314.749 138.712L319.705 143.668L322.478 140.896C325.02 142.682 327.971 143.913 331.164 144.445V148.228H338.172V144.445C341.354 143.916 344.295 142.692 346.832 140.916L349.15 143.234L354.106 138.278L351.828 136C353.768 133.339 355.096 130.215 355.629 126.82H358.665ZM334.668 135.436C328.084 135.436 322.746 130.098 322.746 123.514C322.746 116.929 328.084 111.592 334.668 111.592C341.253 111.592 346.59 116.93 346.59 123.514C346.59 130.099 341.253 135.436 334.668 135.436Z" fill="#666666"/>
<path d="M386.613 153.402V149.359H384.826C384.488 147.438 383.703 145.677 382.582 144.176L384 142.758L381.141 139.899L379.671 141.369C378.166 140.341 376.416 139.652 374.531 139.38V137.268H370.488V139.459C368.681 139.8 367.019 140.54 365.586 141.58L364.155 140.149L361.296 143.008L362.746 144.458C361.687 145.964 360.966 147.719 360.673 149.618H358.666V153.661H360.718C361.049 155.514 361.796 157.218 362.859 158.682L361.279 160.262L364.138 163.121L365.737 161.522C367.204 162.553 368.906 163.263 370.747 163.569V165.751H374.79V163.569C376.626 163.264 378.323 162.558 379.786 161.533L381.123 162.87L383.982 160.011L382.668 158.697C383.787 157.162 384.554 155.36 384.86 153.401L386.613 153.402ZM372.769 158.372C368.971 158.372 365.891 155.293 365.891 151.494C365.891 147.696 368.97 144.616 372.769 144.616C376.568 144.616 379.647 147.695 379.647 151.494C379.647 155.293 376.568 158.372 372.769 158.372Z" fill="#9E9E9E"/>
<path d="M450.313 101.039V86.6459H443.952C442.748 79.8089 439.954 73.5379 435.962 68.1949L441.009 63.1479L430.832 52.9709L425.598 58.2049C420.24 54.5459 414.012 52.0939 407.302 51.1249V43.6069H392.909V51.4069C386.476 52.6199 380.56 55.2539 375.459 58.9569L370.365 53.8629L360.188 64.0399L365.349 69.2009C361.578 74.5629 359.012 80.8099 357.971 87.5709H350.825V101.964H358.129C359.308 108.56 361.966 114.626 365.752 119.838L360.128 125.462L370.305 135.639L375.999 129.946C381.22 133.615 387.279 136.143 393.836 137.234V145.003H408.229V137.234C414.763 136.147 420.804 133.634 426.013 129.986L430.774 134.747L440.951 124.57L436.274 119.893C440.258 114.428 442.986 108.014 444.079 101.04L450.313 101.039ZM401.032 118.735C387.51 118.735 376.548 107.773 376.548 94.2519C376.548 80.7299 387.51 69.7679 401.032 69.7679C414.554 69.7679 425.516 80.7299 425.516 94.2519C425.516 107.773 414.554 118.735 401.032 118.735Z" fill="#8B8B8C"/>
<path d="M400.569 108.673C408.503 108.673 414.936 102.241 414.936 94.306C414.936 86.3713 408.503 79.939 400.569 79.939C392.634 79.939 386.202 86.3713 386.202 94.306C386.202 102.241 392.634 108.673 400.569 108.673Z" fill="#666666"/>
<path d="M120.715 167.801C89.845 169.673 65.849 188.173 67.12 209.121C68.391 230.069 94.446 245.533 125.316 243.66C125.339 243.659 125.362 243.657 125.385 243.656C128.423 243.469 130.548 240.534 129.797 237.585C129.432 236.15 129.226 234.647 129.202 233.095C129.045 223.11 136.769 214.531 146.715 213.632C153.933 212.98 160.527 216.373 164.333 221.895C166.211 224.62 170.203 224.813 172.234 222.199C176.875 216.225 179.341 209.424 178.911 202.341C177.641 181.392 151.586 165.928 120.715 167.801Z" fill="#5A5A63"/>
<path d="M120.51 164.411C89.6399 166.283 65.6439 184.783 66.9149 205.731C68.1859 226.679 94.2409 242.143 125.112 240.27C125.135 240.269 125.158 240.267 125.181 240.266C128.219 240.079 130.344 237.144 129.593 234.195C129.228 232.76 129.022 231.257 128.998 229.705C128.841 219.72 136.565 211.141 146.511 210.242C153.729 209.59 160.323 212.983 164.129 218.505C166.007 221.23 169.999 221.423 172.03 218.809C176.671 212.835 179.137 206.034 178.707 198.951C177.435 178.002 151.38 162.538 120.51 164.411Z" fill="#8B8B8C"/>
<path d="M109.607 223.795C109.833 227.516 106.999 230.716 103.278 230.942C99.5568 231.168 96.3568 228.334 96.1308 224.613C95.9048 220.892 98.7388 217.692 102.46 217.466C106.181 217.24 109.381 220.074 109.607 223.795Z" fill="#0900FF"/>
<path d="M91.2172 211.019C91.4432 214.74 88.6091 217.94 84.8881 218.166C81.1671 218.392 77.9671 215.558 77.7411 211.837C77.5151 208.116 80.3491 204.916 84.0701 204.69C87.7921 204.464 90.9912 207.298 91.2172 211.019Z" fill="#0900FF"/>
<path d="M96.6239 188.673C96.8499 192.394 94.0159 195.594 90.2949 195.82C86.5739 196.046 83.3739 193.212 83.1479 189.491C82.9219 185.77 85.7559 182.57 89.4769 182.344C93.1989 182.118 96.3989 184.952 96.6239 188.673Z" fill="#0900FF"/>
<path d="M119.415 176.596C119.641 180.317 116.807 183.517 113.086 183.743C109.365 183.969 106.165 181.135 105.939 177.414C105.713 173.693 108.547 170.493 112.268 170.267C115.989 170.041 119.189 172.875 119.415 176.596Z" fill="#0900FF"/>
<path d="M145.086 176.926C145.312 180.647 142.478 183.847 138.757 184.073C135.036 184.299 131.836 181.465 131.61 177.744C131.384 174.023 134.218 170.823 137.939 170.597C141.66 170.371 144.86 173.205 145.086 176.926Z" fill="#0900FF"/>
<path d="M166.753 189.137C166.979 192.858 164.145 196.058 160.424 196.284C156.703 196.51 153.503 193.676 153.277 189.955C153.051 186.234 155.885 183.034 159.606 182.808C163.328 182.582 166.528 185.416 166.753 189.137Z" fill="#0900FF"/>
<path opacity="0.68" d="M150.554 168.409L144.199 181.705C143.361 181.664 142.551 182.14 142.217 182.962L142.199 183.007C141.775 184.047 142.275 185.234 143.316 185.658L143.912 185.901C143.795 185.862 143.189 185.791 141.911 187.652C141.91 187.653 141.91 187.653 141.91 187.654C141.833 187.766 141.753 187.887 141.671 188.014C141.663 188.027 141.655 188.039 141.646 188.052C141.57 188.171 141.491 188.297 141.41 188.429C141.394 188.456 141.378 188.482 141.361 188.509C141.285 188.634 141.208 188.765 141.129 188.902C141.106 188.942 141.082 188.983 141.058 189.025C140.983 189.156 140.907 189.292 140.829 189.434C140.798 189.49 140.767 189.548 140.735 189.606C140.661 189.743 140.585 189.885 140.508 190.032C140.47 190.104 140.432 190.178 140.393 190.253C140.319 190.396 140.244 190.542 140.167 190.695C140.122 190.785 140.076 190.878 140.029 190.972C139.955 191.121 139.881 191.272 139.806 191.429C139.754 191.537 139.701 191.649 139.647 191.762C139.573 191.919 139.498 192.077 139.422 192.242C139.364 192.366 139.305 192.497 139.246 192.626C139.171 192.791 139.096 192.956 139.019 193.129C138.954 193.275 138.887 193.429 138.82 193.582C138.746 193.751 138.672 193.919 138.596 194.095C138.523 194.265 138.448 194.443 138.373 194.62C138.299 194.796 138.225 194.969 138.149 195.152C138.069 195.344 137.987 195.546 137.905 195.745C137.831 195.926 137.758 196.103 137.682 196.291C137.594 196.51 137.502 196.742 137.412 196.971C137.339 197.156 137.267 197.336 137.192 197.528C137.091 197.786 136.987 198.058 136.883 198.328C136.816 198.503 136.75 198.671 136.682 198.851C136.559 199.175 136.433 199.515 136.306 199.854C136.253 199.997 136.201 200.133 136.147 200.279C135.965 200.773 135.779 201.282 135.589 201.811C135.08 203.228 134.485 204.896 133.829 206.746C133.753 206.961 133.679 207.17 133.6 207.39C133.501 207.67 133.397 207.963 133.295 208.252C133.21 208.492 133.127 208.727 133.04 208.973C132.906 209.352 132.768 209.744 132.63 210.136C132.568 210.312 132.508 210.483 132.445 210.661C132.308 211.049 132.168 211.447 132.028 211.846C131.957 212.049 131.886 212.248 131.814 212.454C131.682 212.828 131.548 213.212 131.413 213.595C131.33 213.832 131.248 214.064 131.164 214.304C131.009 214.747 130.851 215.198 130.692 215.651C130.632 215.821 130.574 215.988 130.514 216.16C130.353 216.622 130.189 217.091 130.024 217.562C129.954 217.763 129.884 217.962 129.814 218.164C129.661 218.602 129.506 219.047 129.351 219.492C129.272 219.719 129.194 219.943 129.114 220.172C128.949 220.644 128.783 221.122 128.617 221.601C128.545 221.807 128.474 222.011 128.403 222.218C128.239 222.689 128.074 223.165 127.909 223.642C127.826 223.88 127.744 224.116 127.662 224.355C127.514 224.783 127.365 225.213 127.216 225.644C127.11 225.949 127.005 226.254 126.899 226.561C126.771 226.931 126.642 227.304 126.514 227.676C126.392 228.03 126.27 228.383 126.147 228.738C126.01 229.136 125.872 229.535 125.735 229.934C125.663 230.143 125.591 230.35 125.519 230.56C124.398 233.817 123.268 237.122 122.156 240.396C123.136 240.371 124.122 240.33 125.113 240.27C125.136 240.269 125.159 240.267 125.182 240.266C128.22 240.079 130.345 237.144 129.594 234.195C129.229 232.76 129.023 231.257 128.999 229.705C128.862 220.966 134.76 213.305 142.902 210.925C143.802 208.977 144.606 207.229 145.279 205.754C152.441 190.07 150.661 188.664 150.436 188.555L151.032 188.798C152.072 189.221 153.259 188.721 153.683 187.681L153.701 187.636C154.097 186.663 153.679 185.57 152.772 185.085L157.534 171.395C155.332 170.281 153.001 169.282 150.554 168.409Z" fill="#2F2F35"/>
<path opacity="0.42" d="M95.4562 187.64C95.5502 189.196 94.3652 190.535 92.8092 190.629C91.2532 190.723 89.9142 189.538 89.8202 187.982C89.7262 186.426 90.9112 185.087 92.4672 184.993C94.0232 184.899 95.3612 186.084 95.4562 187.64Z" fill="white"/>
<path opacity="0.42" d="M118.261 175.805C118.355 177.361 117.17 178.7 115.614 178.794C114.058 178.888 112.719 177.703 112.625 176.147C112.531 174.591 113.716 173.252 115.272 173.158C116.828 173.063 118.166 174.248 118.261 175.805Z" fill="white"/>
<path opacity="0.42" d="M142.408 175.201C142.502 176.757 141.317 178.096 139.761 178.19C138.205 178.284 136.866 177.099 136.772 175.543C136.678 173.987 137.863 172.648 139.419 172.554C140.975 172.46 142.313 173.645 142.408 175.201Z" fill="white"/>
<path opacity="0.42" d="M88.3707 209.027C88.4647 210.583 87.2797 211.922 85.7237 212.016C84.1677 212.11 82.8287 210.925 82.7347 209.369C82.6407 207.813 83.8257 206.474 85.3817 206.38C86.9377 206.286 88.2757 207.471 88.3707 209.027Z" fill="white"/>
<path opacity="0.42" d="M108.382 221.836C108.476 223.392 107.291 224.731 105.735 224.825C104.179 224.919 102.84 223.734 102.746 222.178C102.652 220.622 103.837 219.283 105.393 219.189C106.949 219.095 108.287 220.28 108.382 221.836Z" fill="white"/>
<path d="M175.236 164.393C175.236 164.393 184.446 159.359 185.036 151.579C184.999 146.981 183.002 143.208 183.002 143.208L181.741 147.946C181.741 147.946 181.048 140.503 175.733 136.907C170.418 133.311 171.726 134.321 171.726 134.321C171.726 134.321 176.189 140.244 171.235 150.066C166.281 159.888 172.533 163.293 172.533 163.293L175.236 164.393Z" fill="#0900FF"/>
<path d="M174.667 161.204C174.667 161.204 173.001 152.662 176.808 148.072C171.859 154.346 170.837 159.387 172.08 163.46C174.667 161.204 174.667 161.204 174.667 161.204Z" fill="#361DA8"/>
<path d="M170.218 162.892C171.029 161.25 172.97 160.513 174.667 161.204L174.697 161.216L174.727 161.228C176.423 161.919 177.298 163.802 176.731 165.544L170.675 184.149L166.115 182.292L161.555 180.435L170.218 162.892Z" fill="white"/>
<path d="M160.85 184.594L168.565 187.735C169.605 188.159 170.792 187.659 171.216 186.618L171.234 186.573C171.658 185.532 171.158 184.346 170.117 183.922L162.402 180.781C161.362 180.357 160.175 180.857 159.751 181.898L159.733 181.943C159.31 182.983 159.81 184.17 160.85 184.594Z" fill="#CCCCCC"/>
<path d="M161.469 184.845L164.708 186.163L167.947 187.482C167.947 187.482 170.405 188.063 162.812 204.69C157.169 217.048 142.654 248.042 134.29 264.602C133.508 266.151 131.162 265.196 131.684 263.541C137.266 245.848 148.529 213.53 153.123 200.745C159.304 183.544 161.469 184.845 161.469 184.845Z" fill="#2F2F35"/>
<path d="M144.194 244.359C140.579 251.897 137.089 259.06 134.289 264.603C133.507 266.152 131.161 265.197 131.683 263.542C133.552 257.619 136.058 250.056 138.736 242.136L144.194 244.359Z" fill="white"/>
<path opacity="0.75" d="M143.052 229.496C154.952 214.767 159.426 186.71 159.446 186.588C158.125 188.512 156.087 192.5 153.123 200.747C150.878 206.994 147.041 217.906 143.052 229.496Z" fill="white"/>
<path d="M373.444 194.954L375.552 199.226L380.266 199.911L376.855 203.236L377.66 207.932L373.444 205.715L369.227 207.932L370.033 203.236L366.622 199.911L371.336 199.226L373.444 194.954Z" fill="#9E9E9E"/>
<path d="M434.141 188.986L437.085 194.951L443.668 195.908L438.905 200.551L440.029 207.107L434.141 204.012L428.254 207.107L429.378 200.551L424.615 195.908L431.198 194.951L434.141 188.986Z" fill="#666666"/>
<path d="M415.72 278.379L417.363 281.708L421.038 282.242L418.379 284.834L419.007 288.493L415.72 286.765L412.434 288.493L413.061 284.834L410.402 282.242L414.077 281.708L415.72 278.379Z" fill="#9E9E9E"/>
<path d="M357.095 255.824L360.039 261.789L366.621 262.745L361.858 267.388L362.983 273.944L357.095 270.849L351.207 273.944L352.332 267.388L347.568 262.745L354.151 261.789L357.095 255.824Z" fill="#666666"/>
<path d="M413.544 269.92C430.373 263.172 438.545 244.058 431.796 227.229C425.048 210.4 405.935 202.228 389.106 208.976C372.276 215.725 364.104 234.838 370.853 251.667C377.601 268.496 396.714 276.668 413.544 269.92Z" fill="#0900FF"/>
<g opacity="0.67">
<path d="M392.481 271.063C404.078 274.299 415.953 270.88 424.054 263.108C418.568 264.578 412.63 264.65 406.763 263.013C389.299 258.14 379.092 240.033 383.965 222.569C385.602 216.702 388.738 211.659 392.836 207.727C381.993 210.633 372.919 219.023 369.683 230.62C364.811 248.083 375.018 266.19 392.481 271.063Z" fill="#361DA8"/>
</g>
<path opacity="0.52" d="M410.128 207.822C408.493 207.366 406.851 207.042 405.216 206.843C404.36 209.913 403.893 213.144 403.893 216.487C403.893 233.576 415.857 247.861 431.863 251.449C432.267 250.417 432.623 249.356 432.927 248.266C437.798 230.802 427.591 212.694 410.128 207.822Z" fill="#E7E9FF"/>
<path d="M368.589 236.741C355.853 231.779 347.931 227.29 348.597 224.905C349.704 220.937 374.152 224.292 403.203 232.398C432.254 240.504 454.906 250.292 453.799 254.26C453.136 256.638 444.092 256.386 430.698 254.058" stroke="#666666" stroke-width="2" stroke-miterlimit="10"/>
</svg>
