<svg width="44" height="45" viewBox="0 0 44 45" fill="none" xmlns="http://www.w3.org/2000/svg">
<g clip-path="url(#clip0_183_96)">
<path d="M23.4891 0.666977C34.6528 0.666977 43.7868 9.80095 43.7868 20.9647V24.136C43.7868 35.2998 34.6528 44.4338 23.4891 44.4338H20.3177C9.154 44.4338 0.0200195 35.2998 0.0200195 24.136V20.9647C0.0200195 9.80095 9.154 0.666977 20.3177 0.666977H23.4891ZM22.3024 11.6673L22.02 11.667C19.6684 11.667 17.3169 11.7447 17.3169 11.7447C13.8822 11.7447 11.0977 14.5291 11.0977 17.9638C11.0977 17.9638 11.0264 19.983 11.0204 22.1504L11.02 22.4338C11.02 24.8605 11.0977 27.3701 11.0977 27.3701C11.0977 30.8048 13.8822 33.5892 17.3169 33.5892C17.3169 33.5892 19.5155 33.667 21.7868 33.667C24.2135 33.667 26.8009 33.5892 26.8009 33.5892C30.2357 33.5892 32.9423 30.8826 32.9423 27.4479C32.9423 27.4479 33.02 24.9665 33.02 22.5893L33.0186 22.0314C33.0081 19.8986 32.9422 17.886 32.9422 17.886C32.9422 14.4513 30.2356 11.7447 26.8009 11.7447C26.8009 11.7447 24.5621 11.6731 22.3024 11.6673ZM22.02 13.6469C23.9484 13.6469 26.4208 13.7107 26.4208 13.7107C29.2373 13.7107 30.9762 15.4497 30.9762 18.2661C30.9762 18.2661 31.04 20.6964 31.04 22.6031C31.04 24.5525 30.9762 27.0677 30.9762 27.0677C30.9762 29.8841 29.2373 31.6231 26.4208 31.6231C26.4208 31.6231 24.2343 31.6767 22.3372 31.6856L21.8288 31.6869C19.9663 31.6869 17.697 31.6231 17.697 31.6231C14.8805 31.6231 13.0638 29.8063 13.0638 26.9899C13.0638 26.9899 13 24.4656 13 22.4757C13 20.6132 13.0638 18.2661 13.0638 18.2661C13.0638 15.4497 14.8806 13.7107 17.697 13.7107C17.697 13.7107 20.0917 13.6469 22.02 13.6469ZM22.02 17.0321C18.9079 17.0321 16.3852 19.5549 16.3852 22.6669C16.3852 25.7789 18.9079 28.3017 22.02 28.3017C25.132 28.3017 27.6548 25.7789 27.6548 22.6669C27.6548 19.5549 25.132 17.0321 22.02 17.0321ZM22.02 19.0002C24.045 19.0002 25.6867 20.6418 25.6867 22.6669C25.6867 24.692 24.045 26.3336 22.02 26.3336C19.995 26.3336 18.3533 24.692 18.3533 22.6669C18.3533 20.6418 19.9949 19.0002 22.02 19.0002ZM27.9244 15.4684C27.1725 15.4684 26.5629 16.081 26.5629 16.8367C26.5629 17.5923 27.1725 18.2049 27.9244 18.2049C28.6763 18.2049 29.2859 17.5923 29.2859 16.8367C29.2859 16.081 28.6763 15.4684 27.9244 15.4684Z" fill="#D8F2FF"/>
</g>
<defs>
<clipPath id="clip0_183_96">
<rect width="44" height="44" fill="white" transform="translate(0 0.621918)"/>
</clipPath>
</defs>
</svg>
