<svg width="40" height="41" viewBox="0 0 40 41" fill="none" xmlns="http://www.w3.org/2000/svg">
<g clip-path="url(#clip0_183_90)">
<path d="M20 0.310974C8.95312 0.310974 0 9.2641 0 20.311C0 31.3578 8.95312 40.311 20 40.311C31.0469 40.311 40 31.3578 40 20.311C40 9.2641 31.0469 0.310974 20 0.310974ZM14.4062 28.6782H10.5078V16.2016H14.4062V28.6782ZM12.3516 14.6391H12.3203C10.9062 14.6391 9.99219 13.686 9.99219 12.475C9.99219 11.2407 10.9375 10.311 12.375 10.311C13.8125 10.311 14.6953 11.2407 14.7266 12.475C14.7344 13.6782 13.8203 14.6391 12.3516 14.6391ZM30 28.6782H25.5781V22.225C25.5781 20.5375 24.8906 19.3813 23.3672 19.3813C22.2031 19.3813 21.5547 20.1625 21.2578 20.9125C21.1484 21.1782 21.1641 21.5532 21.1641 21.936V28.6782H16.7812C16.7812 28.6782 16.8359 17.2407 16.7812 16.2016H21.1641V18.1625C21.4219 17.3032 22.8203 16.0844 25.0547 16.0844C27.8281 16.0844 30 17.8813 30 21.7407V28.6782Z" fill="#D8F2FF"/>
</g>
<defs>
<clipPath id="clip0_183_90">
<rect width="40" height="40" fill="white" transform="translate(0 0.310974)"/>
</clipPath>
</defs>
</svg>
