<svg width="470" height="544" viewBox="0 0 470 544" fill="none" xmlns="http://www.w3.org/2000/svg">
<path d="M112.2 257H84.2V197.4H32.4V257H4.6V124.2H32.4V174.2H84.2V124.2H112.2V257ZM147.183 198.2H187.383C186.983 183.6 177.383 176.6 167.183 176.6C156.783 176.6 148.183 184.6 147.183 198.2ZM214.183 214.6H146.383C147.183 229.4 155.583 239 168.383 239C176.783 239 184.183 234.8 185.983 228H212.783C206.783 248.2 190.583 259.6 169.583 259.6C136.783 259.6 120.383 241.6 120.383 206C120.383 175.6 137.783 156 167.983 156C198.183 156 214.183 175.6 214.183 214.6ZM249.169 257H223.169V158.6H247.569V170.4C256.169 157.2 266.169 156 276.769 156H280.169V182.6C277.769 182.2 275.369 182 272.969 182C256.969 182 249.169 190 249.169 205.8V257ZM314.027 257H288.027V158.6H314.027V257ZM314.027 146.8H288.027V122.6H314.027V146.8ZM415.103 257H388.903V197.4C388.903 182.2 384.503 178 372.103 178C358.503 178 351.903 185.6 351.903 200.6V257H325.903V158.6H350.703V173C356.703 162 366.703 156 382.503 156C401.303 156 415.103 167.4 415.103 188.8V257ZM32.4 426.2H58.8C74.8 426.2 81.4 418 81.4 406.4C81.4 395.4 74.8 387.2 58.8 387.2H32.4V426.2ZM32.4 497H4.6V364.2H63.2C89.2 364.2 105.8 383.2 105.8 407.2C105.8 431.4 89.2 448.8 63.2 448.8H32.4V497ZM168.12 459.6L168.32 448.8C165.72 451.4 161.12 452.8 151.52 454.6C136.72 457.4 131.92 461.6 131.92 470C131.92 477.4 136.32 481 144.52 481C157.92 481 167.92 471.2 168.12 459.6ZM194.32 497H170.12C169.32 494.6 168.72 491.2 168.52 488.2C162.32 495 151.92 499.6 138.72 499.6C116.32 499.6 105.92 488.6 105.92 472.6C105.92 444.2 124.92 441 151.12 437.4C164.12 435.6 167.72 433 167.72 426.2C167.72 419.8 161.32 416 151.12 416C139.32 416 134.52 421.8 133.32 430.6H109.12C109.52 410.2 120.72 396 152.32 396C183.52 396 194.32 410 194.32 434.8V497ZM261.586 457.8V432.2H285.786V460.2C285.786 481 273.786 499.6 245.986 499.6C217.186 499.6 205.786 481.2 205.786 460V372H231.386V398.6H285.786V417H231.386V457.4C231.386 469.8 235.786 477 246.386 477C256.786 477 261.586 470 261.586 457.8ZM321.011 438.2H361.211C360.811 423.6 351.211 416.6 341.011 416.6C330.611 416.6 322.011 424.6 321.011 438.2ZM388.011 454.6H320.211C321.011 469.4 329.411 479 342.211 479C350.611 479 358.011 474.8 359.811 468H386.611C380.611 488.2 364.411 499.6 343.411 499.6C310.611 499.6 294.211 481.6 294.211 446C294.211 415.6 311.611 396 341.811 396C372.011 396 388.011 415.6 388.011 454.6ZM422.997 497H396.997V362.6H422.997V497Z" fill="#D8F2FF"/>
<rect x="288" y="122" width="26" height="25" fill="#0800FF"/>
<mask id="path-3-outside-1_179_48" maskUnits="userSpaceOnUse" x="-2" y="301" width="399" height="208" fill="black">
<rect fill="white" x="-2" y="301" width="399" height="208"/>
<path d="M50.976 324.072H38.304C37.632 317.544 33.696 314.376 25.632 314.376C18.144 314.376 14.208 317.064 14.208 321.864C14.208 325.896 16.992 328.2 24.096 329.928C31.296 331.656 38.304 333.384 43.008 335.496C48.576 337.992 52.992 341.928 52.992 350.952C52.992 364.968 42.432 371.208 27.552 371.208C11.808 371.208 0.864 364.2 0.576 349.896H13.44C13.632 356.424 19.104 360.456 27.648 360.456C35.52 360.456 40.032 357.096 40.032 351.432C40.032 347.688 38.112 345.096 30.144 343.368C22.272 341.64 17.184 340.488 12.672 338.472C5.856 335.4 2.016 330.792 2.016 322.728C2.016 311.304 9.792 303.144 25.344 303.144C41.472 303.144 50.496 311.88 50.976 324.072ZM79.8218 359.784C87.4058 359.784 91.2458 354.984 91.2458 345.384C91.2458 335.784 87.4058 331.08 79.8218 331.08C72.2378 331.08 68.3978 335.784 68.3978 345.384C68.3978 354.984 72.2378 359.784 79.8218 359.784ZM79.8218 370.248C64.5578 370.248 55.5338 360.072 55.5338 345.384C55.5338 330.408 64.8458 320.52 79.8218 320.52C94.6058 320.52 103.822 330.312 103.822 345.384C103.822 360.36 94.5098 370.248 79.8218 370.248ZM121.774 369H109.486V330.6H102.478V321.768H109.486C109.486 310.248 116.11 304.488 129.55 304.488V314.568C123.214 314.568 121.774 316.296 121.774 321.768H129.838V330.6H121.774V369ZM159.686 350.184V337.896H171.302V351.336C171.302 361.32 165.542 370.248 152.198 370.248C138.374 370.248 132.902 361.416 132.902 351.24V309H145.19V321.768H171.302V330.6H145.19V349.992C145.19 355.944 147.302 359.4 152.39 359.4C157.382 359.4 159.686 356.04 159.686 350.184ZM228.146 369H215.378L207.89 341.544L200.402 369H187.634L174.194 321.768H187.346L195.026 352.104L201.554 321.768H214.226L221.618 352.104L228.818 321.768H241.682L228.146 369ZM269.698 351.048L269.794 345.864C268.546 347.112 266.338 347.784 261.73 348.648C254.626 349.992 252.322 352.008 252.322 356.04C252.322 359.592 254.434 361.32 258.37 361.32C264.802 361.32 269.602 356.616 269.698 351.048ZM282.274 369H270.658C270.274 367.848 269.986 366.216 269.89 364.776C266.914 368.04 261.922 370.248 255.586 370.248C244.834 370.248 239.842 364.968 239.842 357.288C239.842 343.656 248.962 342.12 261.538 340.392C267.778 339.528 269.506 338.28 269.506 335.016C269.506 331.944 266.434 330.12 261.538 330.12C255.874 330.12 253.57 332.904 252.994 337.128H241.378C241.57 327.336 246.946 320.52 262.114 320.52C277.09 320.52 282.274 327.24 282.274 339.144V369ZM300.257 369H287.777V321.768H299.489V327.432C303.617 321.096 308.417 320.52 313.505 320.52H315.137V333.288C313.985 333.096 312.833 333 311.681 333C304.001 333 300.257 336.84 300.257 344.424V369ZM327.523 340.776H346.819C346.627 333.768 342.019 330.408 337.123 330.408C332.131 330.408 328.003 334.248 327.523 340.776ZM359.683 348.648H327.139C327.523 355.752 331.555 360.36 337.699 360.36C341.731 360.36 345.283 358.344 346.147 355.08H359.011C356.131 364.776 348.355 370.248 338.275 370.248C322.531 370.248 314.659 361.608 314.659 344.52C314.659 329.928 323.011 320.52 337.507 320.52C352.003 320.52 359.683 329.928 359.683 348.648ZM15.168 473.152H26.208C37.824 473.152 42.816 465.856 42.816 451.456C42.816 437.056 37.824 431.296 25.056 431.296H15.168V473.152ZM28.896 484H2.208V420.256H26.88C44.16 420.256 56.448 432.064 56.448 451.456C56.448 470.848 45.408 484 28.896 484ZM72.6165 455.776H91.9125C91.7205 448.768 87.1125 445.408 82.2165 445.408C77.2245 445.408 73.0965 449.248 72.6165 455.776ZM104.777 463.648H72.2325C72.6165 470.752 76.6485 475.36 82.7925 475.36C86.8245 475.36 90.3765 473.344 91.2405 470.08H104.105C101.225 479.776 93.4485 485.248 83.3685 485.248C67.6245 485.248 59.7525 476.608 59.7525 459.52C59.7525 444.928 68.1045 435.52 82.6005 435.52C97.0965 435.52 104.777 444.928 104.777 463.648ZM133.553 484H120.497L103.601 436.768H117.521L127.409 467.968L137.393 436.768H150.545L133.553 484ZM162.429 455.776H181.725C181.533 448.768 176.925 445.408 172.029 445.408C167.037 445.408 162.909 449.248 162.429 455.776ZM194.589 463.648H162.045C162.429 470.752 166.461 475.36 172.605 475.36C176.637 475.36 180.189 473.344 181.053 470.08H193.917C191.037 479.776 183.261 485.248 173.181 485.248C157.437 485.248 149.565 476.608 149.565 459.52C149.565 444.928 157.917 435.52 172.413 435.52C186.909 435.52 194.589 444.928 194.589 463.648ZM211.382 484H198.902V419.488H211.382V484ZM239.853 474.784C247.437 474.784 251.277 469.984 251.277 460.384C251.277 450.784 247.437 446.08 239.853 446.08C232.269 446.08 228.429 450.784 228.429 460.384C228.429 469.984 232.269 474.784 239.853 474.784ZM239.853 485.248C224.589 485.248 215.565 475.072 215.565 460.384C215.565 445.408 224.877 435.52 239.853 435.52C254.637 435.52 263.853 445.312 263.853 460.384C263.853 475.36 254.541 485.248 239.853 485.248ZM290.643 474.592C297.939 474.592 301.395 469.696 301.395 460C301.395 451.552 296.979 445.696 290.739 445.696C284.787 445.696 280.179 451.264 280.179 459.232C280.179 469.504 283.731 474.592 290.643 474.592ZM280.659 506.368H268.371V436.768H280.371L280.467 442.528C283.443 437.728 287.859 435.52 293.619 435.52C305.523 435.52 314.067 444.928 314.067 460.864C314.067 475.168 306.867 485.248 294.675 485.248C288.819 485.248 284.211 482.848 280.659 477.856V506.368ZM330.429 455.776H349.725C349.533 448.768 344.925 445.408 340.029 445.408C335.037 445.408 330.909 449.248 330.429 455.776ZM362.589 463.648H330.045C330.429 470.752 334.461 475.36 340.605 475.36C344.637 475.36 348.189 473.344 349.053 470.08H361.917C359.037 479.776 351.261 485.248 341.181 485.248C325.437 485.248 317.565 476.608 317.565 459.52C317.565 444.928 325.917 435.52 340.413 435.52C354.909 435.52 362.589 444.928 362.589 463.648ZM379.382 484H366.902V436.768H378.614V442.432C382.742 436.096 387.542 435.52 392.63 435.52H394.262V448.288C393.11 448.096 391.958 448 390.806 448C383.126 448 379.382 451.84 379.382 459.424V484Z"/>
</mask>
<path d="M50.976 324.072V326.072H53.0563L52.9745 323.993L50.976 324.072ZM38.304 324.072L36.3145 324.277L36.4993 326.072H38.304V324.072ZM24.096 329.928L23.6233 331.871L23.6293 331.873L24.096 329.928ZM43.008 335.496L42.1888 337.321L42.1899 337.321L43.008 335.496ZM0.576 349.896V347.896H-1.46467L-1.42359 349.936L0.576 349.896ZM13.44 349.896L15.4391 349.837L15.382 347.896H13.44V349.896ZM30.144 343.368L29.7152 345.321L29.7201 345.323L30.144 343.368ZM12.672 338.472L11.8502 340.295L11.8561 340.298L12.672 338.472ZM50.976 322.072H38.304V326.072H50.976V322.072ZM40.2935 323.867C39.919 320.229 38.592 317.23 35.9647 315.195C33.3952 313.205 29.8841 312.376 25.632 312.376V316.376C29.4439 316.376 31.9328 317.131 33.5153 318.357C35.04 319.538 36.017 321.387 36.3145 324.277L40.2935 323.867ZM25.632 312.376C21.7007 312.376 18.3922 313.073 16.0074 314.653C13.5033 316.312 12.208 318.824 12.208 321.864H16.208C16.208 320.104 16.8807 318.872 18.2166 317.987C19.6718 317.023 22.0753 316.376 25.632 316.376V312.376ZM12.208 321.864C12.208 324.444 13.1462 326.61 15.2215 328.308C17.1616 329.895 19.9929 330.988 23.6233 331.871L24.5687 327.985C21.0951 327.14 18.9824 326.217 17.7545 325.212C16.6618 324.318 16.208 323.316 16.208 321.864H12.208ZM23.6293 331.873C30.8911 333.616 37.6925 335.302 42.1888 337.321L43.8272 333.671C38.9155 331.466 31.7009 329.696 24.5627 327.983L23.6293 331.873ZM42.1899 337.321C44.8089 338.495 46.9648 339.925 48.4823 341.968C49.9797 343.985 50.992 346.784 50.992 350.952H54.992C54.992 346.096 53.7963 342.415 51.6937 339.584C49.6112 336.779 46.7752 334.993 43.8261 333.671L42.1899 337.321ZM50.992 350.952C50.992 357.391 48.6025 361.828 44.6665 364.725C40.637 367.691 34.7561 369.208 27.552 369.208V373.208C35.2279 373.208 42.067 371.605 47.0375 367.947C52.1015 364.22 54.992 358.529 54.992 350.952H50.992ZM27.552 369.208C19.9417 369.208 13.7443 367.51 9.46475 364.314C5.26008 361.173 2.70825 356.444 2.57559 349.856L-1.42359 349.936C-1.26825 357.652 1.79592 363.579 7.07125 367.518C12.2718 371.402 19.4183 373.208 27.552 373.208V369.208ZM0.576 351.896H13.44V347.896H0.576V351.896ZM11.4409 349.955C11.5547 353.826 13.2643 357.038 16.2208 359.231C19.1228 361.382 23.0867 362.456 27.648 362.456V358.456C23.6653 358.456 20.6212 357.514 18.6032 356.017C16.6397 354.562 15.5173 352.494 15.4391 349.837L11.4409 349.955ZM27.648 362.456C31.8308 362.456 35.3991 361.569 37.9743 359.681C40.6302 357.734 42.032 354.863 42.032 351.432H38.032C38.032 353.665 37.1778 355.306 35.6097 356.455C33.9609 357.663 31.3372 358.456 27.648 358.456V362.456ZM42.032 351.432C42.032 349.158 41.4204 346.968 39.4159 345.159C37.5455 343.471 34.6543 342.3 30.5679 341.413L29.7201 345.323C33.6017 346.164 35.6545 347.153 36.7361 348.129C37.6836 348.984 38.032 349.962 38.032 351.432H42.032ZM30.5728 341.415C22.6463 339.675 17.7758 338.562 13.4879 336.646L11.8561 340.298C16.5922 342.414 21.8977 343.605 29.7152 345.321L30.5728 341.415ZM13.4938 336.649C10.2902 335.205 7.95919 333.477 6.41702 331.312C4.88994 329.168 4.016 326.426 4.016 322.728H0.0160002C0.0160002 327.094 1.06206 330.688 3.15898 333.632C5.24081 336.555 8.23781 338.667 11.8502 340.295L13.4938 336.649ZM4.016 322.728C4.016 317.489 5.78447 313.173 9.1793 310.145C12.5991 307.094 17.903 305.144 25.344 305.144V301.144C17.233 301.144 10.8729 303.274 6.5167 307.159C2.13553 311.067 0.0160002 316.543 0.0160002 322.728H4.016ZM25.344 305.144C33.0546 305.144 38.8418 307.229 42.7275 310.555C46.5933 313.864 48.7571 318.552 48.9775 324.151L52.9745 323.993C52.7149 317.4 50.1267 311.624 45.3285 307.517C40.5502 303.427 33.7614 301.144 25.344 301.144V305.144ZM79.8218 361.784C84.0632 361.784 87.5662 360.419 89.9433 357.429C92.2516 354.525 93.2458 350.398 93.2458 345.384H89.2458C89.2458 349.97 88.3199 353.043 86.8122 354.939C85.3733 356.749 83.1643 357.784 79.8218 357.784V361.784ZM93.2458 345.384C93.2458 340.371 92.2519 336.262 89.9372 333.38C87.5547 330.413 84.0503 329.08 79.8218 329.08V333.08C83.1772 333.08 85.3848 334.099 86.8183 335.884C88.3196 337.754 89.2458 340.797 89.2458 345.384H93.2458ZM79.8218 329.08C75.5932 329.08 72.0888 330.413 69.7063 333.38C67.3916 336.262 66.3978 340.371 66.3978 345.384H70.3978C70.3978 340.797 71.3239 337.754 72.8252 335.884C74.2587 334.099 76.4663 333.08 79.8218 333.08V329.08ZM66.3978 345.384C66.3978 350.398 67.3919 354.525 69.7002 357.429C72.0773 360.419 75.5803 361.784 79.8218 361.784V357.784C76.4792 357.784 74.2702 356.749 72.8313 354.939C71.3236 353.043 70.3978 349.97 70.3978 345.384H66.3978ZM79.8218 368.248C72.6516 368.248 67.1342 365.87 63.4033 361.946C59.6593 358.008 57.5338 352.321 57.5338 345.384H53.5338C53.5338 353.135 55.9202 359.88 60.5042 364.702C65.1013 369.538 71.7279 372.248 79.8218 372.248V368.248ZM57.5338 345.384C57.5338 338.312 59.7259 332.629 63.4996 328.726C67.2654 324.831 72.7874 322.52 79.8218 322.52V318.52C71.8801 318.52 65.2581 321.153 60.6239 325.946C55.9976 330.731 53.5338 337.48 53.5338 345.384H57.5338ZM79.8218 322.52C86.7579 322.52 92.2047 324.806 95.9219 328.684C99.6484 332.572 101.822 338.255 101.822 345.384H105.822C105.822 337.441 103.387 330.692 98.8096 325.916C94.2228 321.13 87.6696 318.52 79.8218 318.52V322.52ZM101.822 345.384C101.822 352.456 99.6292 358.143 95.8859 362.048C92.1516 365.944 86.7014 368.248 79.8218 368.248V372.248C87.6301 372.248 94.1799 369.608 98.7736 364.816C103.358 360.033 105.822 353.288 105.822 345.384H101.822ZM121.774 369V371H123.774V369H121.774ZM109.486 369H107.486V371H109.486V369ZM109.486 330.6H111.486V328.6H109.486V330.6ZM102.478 330.6H100.478V332.6H102.478V330.6ZM102.478 321.768V319.768H100.478V321.768H102.478ZM109.486 321.768V323.768H111.486V321.768H109.486ZM129.55 304.488H131.55V302.488H129.55V304.488ZM129.55 314.568V316.568H131.55V314.568H129.55ZM121.774 321.768H119.774V323.768H121.774V321.768ZM129.838 321.768H131.838V319.768H129.838V321.768ZM129.838 330.6V332.6H131.838V330.6H129.838ZM121.774 330.6V328.6H119.774V330.6H121.774ZM121.774 367H109.486V371H121.774V367ZM111.486 369V330.6H107.486V369H111.486ZM109.486 328.6H102.478V332.6H109.486V328.6ZM104.478 330.6V321.768H100.478V330.6H104.478ZM102.478 323.768H109.486V319.768H102.478V323.768ZM111.486 321.768C111.486 316.395 113.017 312.711 115.785 310.322C118.609 307.883 123.069 306.488 129.55 306.488V302.488C122.591 302.488 117.018 303.973 113.171 307.294C109.266 310.665 107.486 315.621 107.486 321.768H111.486ZM127.55 304.488V314.568H131.55V304.488H127.55ZM129.55 312.568C126.364 312.568 123.668 312.961 121.894 314.68C120.092 316.426 119.774 319.018 119.774 321.768H123.774C123.774 319.046 124.176 318.038 124.677 317.552C125.207 317.039 126.399 316.568 129.55 316.568V312.568ZM121.774 323.768H129.838V319.768H121.774V323.768ZM127.838 321.768V330.6H131.838V321.768H127.838ZM129.838 328.6H121.774V332.6H129.838V328.6ZM119.774 330.6V369H123.774V330.6H119.774ZM159.686 337.896V335.896H157.686V337.896H159.686ZM171.302 337.896H173.302V335.896H171.302V337.896ZM132.902 309V307H130.902V309H132.902ZM145.19 309H147.19V307H145.19V309ZM145.19 321.768H143.19V323.768H145.19V321.768ZM171.302 321.768H173.302V319.768H171.302V321.768ZM171.302 330.6V332.6H173.302V330.6H171.302ZM145.19 330.6V328.6H143.19V330.6H145.19ZM161.686 350.184V337.896H157.686V350.184H161.686ZM159.686 339.896H171.302V335.896H159.686V339.896ZM169.302 337.896V351.336H173.302V337.896H169.302ZM169.302 351.336C169.302 355.963 167.968 360.175 165.263 363.204C162.592 366.194 158.394 368.248 152.198 368.248V372.248C159.346 372.248 164.7 369.838 168.246 365.868C171.757 361.937 173.302 356.693 173.302 351.336H169.302ZM152.198 368.248C145.736 368.248 141.503 366.201 138.861 363.231C136.181 360.219 134.902 355.994 134.902 351.24H130.902C130.902 356.662 132.359 361.941 135.872 365.889C139.422 369.879 144.837 372.248 152.198 372.248V368.248ZM134.902 351.24V309H130.902V351.24H134.902ZM132.902 311H145.19V307H132.902V311ZM143.19 309V321.768H147.19V309H143.19ZM145.19 323.768H171.302V319.768H145.19V323.768ZM169.302 321.768V330.6H173.302V321.768H169.302ZM171.302 328.6H145.19V332.6H171.302V328.6ZM143.19 330.6V349.992H147.19V330.6H143.19ZM143.19 349.992C143.19 353.142 143.738 355.995 145.262 358.101C146.876 360.33 149.342 361.4 152.39 361.4V357.4C150.351 357.4 149.217 356.742 148.502 355.755C147.699 354.645 147.19 352.794 147.19 349.992H143.19ZM152.39 361.4C155.378 361.4 157.848 360.365 159.5 358.202C161.078 356.135 161.686 353.322 161.686 350.184H157.686C157.686 352.902 157.143 354.697 156.321 355.774C155.572 356.755 154.395 357.4 152.39 357.4V361.4ZM228.146 369V371H229.654L230.069 369.551L228.146 369ZM215.378 369L213.449 369.526L213.851 371H215.378V369ZM207.89 341.544L209.82 341.018L207.89 333.943L205.961 341.018L207.89 341.544ZM200.402 369V371H201.93L202.332 369.526L200.402 369ZM187.634 369L185.711 369.547L186.124 371H187.634V369ZM174.194 321.768V319.768H171.546L172.271 322.315L174.194 321.768ZM187.346 321.768L189.285 321.277L188.903 319.768H187.346V321.768ZM195.026 352.104L193.087 352.595L196.981 352.525L195.026 352.104ZM201.554 321.768V319.768H199.939L199.599 321.347L201.554 321.768ZM214.226 321.768L216.169 321.295L215.797 319.768H214.226V321.768ZM221.618 352.104L219.675 352.577L223.564 352.566L221.618 352.104ZM228.818 321.768V319.768H227.237L226.872 321.306L228.818 321.768ZM241.682 321.768L243.605 322.319L244.336 319.768H241.682V321.768ZM228.146 367H215.378V371H228.146V367ZM217.308 368.474L209.82 341.018L205.961 342.07L213.449 369.526L217.308 368.474ZM205.961 341.018L198.473 368.474L202.332 369.526L209.82 342.07L205.961 341.018ZM200.402 367H187.634V371H200.402V367ZM189.558 368.453L176.118 321.221L172.271 322.315L185.711 369.547L189.558 368.453ZM174.194 323.768H187.346V319.768H174.194V323.768ZM185.407 322.259L193.087 352.595L196.965 351.613L189.285 321.277L185.407 322.259ZM196.981 352.525L203.509 322.189L199.599 321.347L193.071 351.683L196.981 352.525ZM201.554 323.768H214.226V319.768H201.554V323.768ZM212.283 322.241L219.675 352.577L223.561 351.631L216.169 321.295L212.283 322.241ZM223.564 352.566L230.764 322.23L226.872 321.306L219.672 351.642L223.564 352.566ZM228.818 323.768H241.682V319.768H228.818V323.768ZM239.76 321.217L226.224 368.449L230.069 369.551L243.605 322.319L239.76 321.217ZM269.698 351.048L267.698 351.011L267.698 351.014L269.698 351.048ZM269.794 345.864L271.793 345.901L271.885 340.944L268.38 344.45L269.794 345.864ZM261.73 348.648L261.361 346.682L261.358 346.683L261.73 348.648ZM282.274 369V371H284.274V369H282.274ZM270.658 369L268.76 369.632L269.216 371H270.658V369ZM269.89 364.776L271.885 364.643L271.573 359.961L268.412 363.428L269.89 364.776ZM261.538 340.392L261.81 342.373L261.812 342.373L261.538 340.392ZM252.994 337.128V339.128H254.74L254.975 337.398L252.994 337.128ZM241.378 337.128L239.378 337.089L239.338 339.128H241.378V337.128ZM271.697 351.085L271.793 345.901L267.794 345.827L267.698 351.011L271.697 351.085ZM268.38 344.45C268.058 344.771 267.515 345.124 266.384 345.504C265.241 345.889 263.654 346.252 261.361 346.682L262.098 350.614C264.413 350.18 266.234 349.775 267.66 349.296C269.096 348.812 270.281 348.205 271.208 347.278L268.38 344.45ZM261.358 346.683C257.747 347.366 254.978 348.275 253.109 349.777C251.066 351.418 250.322 353.569 250.322 356.04H254.322C254.322 354.479 254.729 353.606 255.614 352.895C256.673 352.045 258.608 351.274 262.102 350.613L261.358 346.683ZM250.322 356.04C250.322 358.222 250.986 360.172 252.567 361.529C254.091 362.839 256.152 363.32 258.37 363.32V359.32C256.652 359.32 255.688 358.937 255.173 358.495C254.714 358.1 254.322 357.41 254.322 356.04H250.322ZM258.37 363.32C265.785 363.32 271.581 357.846 271.697 351.082L267.698 351.014C267.623 355.386 263.818 359.32 258.37 359.32V363.32ZM282.274 367H270.658V371H282.274V367ZM272.555 368.368C272.238 367.415 271.973 365.958 271.885 364.643L267.894 364.909C267.999 366.474 268.31 368.281 268.76 369.632L272.555 368.368ZM268.412 363.428C265.884 366.201 261.472 368.248 255.586 368.248V372.248C262.372 372.248 267.943 369.879 271.368 366.124L268.412 363.428ZM255.586 368.248C250.513 368.248 247.112 367.002 245.003 365.146C242.928 363.321 241.842 360.678 241.842 357.288H237.842C237.842 361.578 239.251 365.415 242.361 368.15C245.435 370.854 249.907 372.248 255.586 372.248V368.248ZM241.842 357.288C241.842 354.096 242.376 351.773 243.25 350.04C244.11 348.33 245.36 347.074 247 346.092C250.431 344.04 255.401 343.254 261.81 342.373L261.265 338.411C255.099 339.258 249.22 340.104 244.947 342.66C242.736 343.982 240.919 345.774 239.677 348.24C238.447 350.683 237.842 353.664 237.842 357.288H241.842ZM261.812 342.373C264.922 341.943 267.349 341.376 268.99 340.255C269.875 339.65 270.545 338.879 270.969 337.917C271.378 336.987 271.506 335.996 271.506 335.016H267.506C267.506 335.668 267.417 336.057 267.308 336.306C267.212 336.523 267.06 336.73 266.734 336.953C265.95 337.488 264.394 337.977 261.263 338.411L261.812 342.373ZM271.506 335.016C271.506 332.688 270.289 330.859 268.398 329.708C266.591 328.608 264.193 328.12 261.538 328.12V332.12C263.779 332.12 265.364 332.544 266.318 333.124C267.187 333.653 267.506 334.272 267.506 335.016H271.506ZM261.538 328.12C258.387 328.12 255.854 328.898 254.018 330.555C252.191 332.204 251.338 334.468 251.012 336.858L254.975 337.398C255.226 335.564 255.813 334.324 256.698 333.525C257.574 332.734 259.025 332.12 261.538 332.12V328.12ZM252.994 335.128H241.378V339.128H252.994V335.128ZM243.377 337.167C243.467 332.621 244.745 329.081 247.465 326.641C250.22 324.169 254.791 322.52 262.114 322.52V318.52C254.269 318.52 248.567 320.279 244.794 323.663C240.986 327.079 239.481 331.843 239.378 337.089L243.377 337.167ZM262.114 322.52C269.351 322.52 273.762 324.149 276.396 326.782C279.025 329.412 280.274 333.435 280.274 339.144H284.274C284.274 332.949 282.93 327.66 279.224 323.954C275.521 320.251 269.853 318.52 262.114 318.52V322.52ZM280.274 339.144V369H284.274V339.144H280.274ZM300.257 369V371H302.257V369H300.257ZM287.777 369H285.777V371H287.777V369ZM287.777 321.768V319.768H285.777V321.768H287.777ZM299.489 321.768H301.489V319.768H299.489V321.768ZM299.489 327.432H297.489V334.166L301.165 328.524L299.489 327.432ZM315.137 320.52H317.137V318.52H315.137V320.52ZM315.137 333.288L314.808 335.261L317.137 335.649V333.288H315.137ZM300.257 367H287.777V371H300.257V367ZM289.777 369V321.768H285.777V369H289.777ZM287.777 323.768H299.489V319.768H287.777V323.768ZM297.489 321.768V327.432H301.489V321.768H297.489ZM301.165 328.524C303.034 325.655 304.957 324.222 306.877 323.458C308.856 322.67 311.006 322.52 313.505 322.52V318.52C310.917 318.52 308.122 318.658 305.398 319.742C302.614 320.85 300.073 322.873 297.814 326.34L301.165 328.524ZM313.505 322.52H315.137V318.52H313.505V322.52ZM313.137 320.52V333.288H317.137V320.52H313.137ZM315.466 331.315C314.207 331.105 312.945 331 311.681 331V335C312.722 335 313.764 335.087 314.808 335.261L315.466 331.315ZM311.681 331C307.533 331 304.075 332.039 301.671 334.458C299.268 336.876 298.257 340.33 298.257 344.424H302.257C302.257 340.934 303.118 338.676 304.508 337.278C305.895 335.881 308.15 335 311.681 335V331ZM298.257 344.424V369H302.257V344.424H298.257ZM327.523 340.776L325.528 340.629L325.37 342.776H327.523V340.776ZM346.819 340.776V342.776H348.874L348.818 340.721L346.819 340.776ZM359.683 348.648V350.648H361.683V348.648H359.683ZM327.139 348.648V346.648H325.028L325.142 348.756L327.139 348.648ZM346.147 355.08V353.08H344.607L344.213 354.568L346.147 355.08ZM359.011 355.08L360.928 355.649L361.691 353.08H359.011V355.08ZM327.523 342.776H346.819V338.776H327.523V342.776ZM348.818 340.721C348.71 336.769 347.339 333.651 345.12 331.521C342.916 329.407 340.025 328.408 337.123 328.408V332.408C339.117 332.408 340.977 333.089 342.35 334.407C343.706 335.709 344.736 337.775 344.82 340.831L348.818 340.721ZM337.123 328.408C330.893 328.408 326.07 333.258 325.528 340.629L329.517 340.923C329.935 335.238 333.369 332.408 337.123 332.408V328.408ZM359.683 346.648H327.139V350.648H359.683V346.648ZM325.142 348.756C325.352 352.648 326.573 356.046 328.768 358.501C330.991 360.987 334.088 362.36 337.699 362.36V358.36C335.166 358.36 333.175 357.429 331.75 355.835C330.297 354.21 329.309 351.752 329.136 348.54L325.142 348.756ZM337.699 362.36C342.243 362.36 346.896 360.064 348.08 355.592L344.213 354.568C343.669 356.624 341.218 358.36 337.699 358.36V362.36ZM346.147 357.08H359.011V353.08H346.147V357.08ZM357.094 354.511C354.479 363.312 347.518 368.248 338.275 368.248V372.248C349.191 372.248 357.782 366.24 360.928 355.649L357.094 354.511ZM338.275 368.248C330.761 368.248 325.477 366.195 322.037 362.441C318.568 358.654 316.659 352.794 316.659 344.52H312.659C312.659 353.334 314.685 360.338 319.088 365.143C323.521 369.981 330.044 372.248 338.275 372.248V368.248ZM316.659 344.52C316.659 337.597 318.636 332.131 322.108 328.413C325.564 324.713 330.707 322.52 337.507 322.52V318.52C329.81 318.52 323.53 321.031 319.185 325.683C314.857 330.317 312.659 336.851 312.659 344.52H316.659ZM337.507 322.52C344.291 322.52 349.195 324.697 352.466 328.809C355.801 333.003 357.683 339.513 357.683 348.648H361.683C361.683 339.063 359.724 331.509 355.596 326.319C351.402 321.047 345.219 318.52 337.507 318.52V322.52ZM15.168 473.152H13.168V475.152H15.168V473.152ZM15.168 431.296V429.296H13.168V431.296H15.168ZM2.208 484H0.208V486H2.208V484ZM2.208 420.256V418.256H0.208V420.256H2.208ZM15.168 475.152H26.208V471.152H15.168V475.152ZM26.208 475.152C32.4681 475.152 37.2986 473.158 40.4718 468.899C43.5531 464.763 44.816 458.818 44.816 451.456H40.816C40.816 458.494 39.5829 463.397 37.2642 466.509C35.0374 469.498 31.5639 471.152 26.208 471.152V475.152ZM44.816 451.456C44.816 444.113 43.5617 438.456 40.2271 434.657C36.8329 430.79 31.6937 429.296 25.056 429.296V433.296C31.1863 433.296 34.9271 434.682 37.2209 437.295C39.5743 439.976 40.816 444.399 40.816 451.456H44.816ZM25.056 429.296H15.168V433.296H25.056V429.296ZM13.168 431.296V473.152H17.168V431.296H13.168ZM28.896 482H2.208V486H28.896V482ZM4.208 484V420.256H0.208V484H4.208ZM2.208 422.256H26.88V418.256H2.208V422.256ZM26.88 422.256C35.0531 422.256 41.9032 425.039 46.7107 429.979C51.5199 434.92 54.448 442.189 54.448 451.456H58.448C58.448 441.331 55.2321 433 49.5773 427.189C43.9208 421.377 35.9869 418.256 26.88 418.256V422.256ZM54.448 451.456C54.448 460.784 51.7941 468.431 47.336 473.71C42.9026 478.959 36.5797 482 28.896 482V486C37.7243 486 45.1774 482.465 50.392 476.29C55.5819 470.145 58.448 461.52 58.448 451.456H54.448ZM72.6165 455.776L70.6219 455.629L70.464 457.776H72.6165V455.776ZM91.9125 455.776V457.776H93.968L93.9118 455.721L91.9125 455.776ZM104.777 463.648V465.648H106.777V463.648H104.777ZM72.2325 463.648V461.648H70.1215L70.2354 463.756L72.2325 463.648ZM91.2405 470.08V468.08H89.701L89.3071 469.568L91.2405 470.08ZM104.105 470.08L106.022 470.649L106.785 468.08H104.105V470.08ZM72.6165 457.776H91.9125V453.776H72.6165V457.776ZM93.9118 455.721C93.8035 451.769 92.4331 448.651 90.2134 446.521C88.0102 444.407 85.1183 443.408 82.2165 443.408V447.408C84.2107 447.408 86.0708 448.089 87.4436 449.407C88.7999 450.709 89.8295 452.775 89.9133 455.831L93.9118 455.721ZM82.2165 443.408C75.9865 443.408 71.1639 448.258 70.6219 455.629L74.6111 455.923C75.0291 450.238 78.4625 447.408 82.2165 447.408V443.408ZM104.777 461.648H72.2325V465.648H104.777V461.648ZM70.2354 463.756C70.4458 467.648 71.6663 471.046 73.8616 473.501C76.0847 475.987 79.1815 477.36 82.7925 477.36V473.36C80.2595 473.36 78.2683 472.429 76.8434 470.835C75.3907 469.21 74.4032 466.752 74.2296 463.54L70.2354 463.756ZM82.7925 477.36C87.3371 477.36 91.9901 475.064 93.1739 470.592L89.3071 469.568C88.7629 471.624 86.3119 473.36 82.7925 473.36V477.36ZM91.2405 472.08H104.105V468.08H91.2405V472.08ZM102.187 469.511C99.5729 478.312 92.6118 483.248 83.3685 483.248V487.248C94.2852 487.248 102.876 481.24 106.022 470.649L102.187 469.511ZM83.3685 483.248C75.855 483.248 70.5704 481.195 67.1312 477.441C63.6618 473.654 61.7525 467.794 61.7525 459.52H57.7525C57.7525 468.334 59.7792 475.338 64.1818 480.143C68.6146 484.981 75.138 487.248 83.3685 487.248V483.248ZM61.7525 459.52C61.7525 452.597 63.7298 447.131 67.2022 443.413C70.6574 439.713 75.8009 437.52 82.6005 437.52V433.52C74.9041 433.52 68.6236 436.031 64.2788 440.683C59.9512 445.317 57.7525 451.851 57.7525 459.52H61.7525ZM82.6005 437.52C89.3845 437.52 94.2889 439.697 97.5593 443.809C100.895 448.003 102.777 454.513 102.777 463.648H106.777C106.777 454.063 104.818 446.509 100.69 441.319C96.4961 436.047 90.3125 433.52 82.6005 433.52V437.52ZM133.553 484V486H134.958L135.434 484.677L133.553 484ZM120.497 484L118.613 484.674L119.088 486H120.497V484ZM103.601 436.768V434.768H100.761L101.717 437.442L103.601 436.768ZM117.521 436.768L119.427 436.164L118.985 434.768H117.521V436.768ZM127.409 467.968L125.502 468.572L127.399 474.559L129.313 468.578L127.409 467.968ZM137.393 436.768V434.768H135.933L135.488 436.158L137.393 436.768ZM150.545 436.768L152.426 437.445L153.39 434.768H150.545V436.768ZM133.553 482H120.497V486H133.553V482ZM122.38 483.326L105.484 436.094L101.717 437.442L118.613 484.674L122.38 483.326ZM103.601 438.768H117.521V434.768H103.601V438.768ZM115.614 437.372L125.502 468.572L129.315 467.364L119.427 436.164L115.614 437.372ZM129.313 468.578L139.297 437.378L135.488 436.158L125.504 467.358L129.313 468.578ZM137.393 438.768H150.545V434.768H137.393V438.768ZM148.663 436.091L131.671 483.323L135.434 484.677L152.426 437.445L148.663 436.091ZM162.429 455.776L160.434 455.629L160.277 457.776H162.429V455.776ZM181.725 455.776V457.776H183.781L183.724 455.721L181.725 455.776ZM194.589 463.648V465.648H196.589V463.648H194.589ZM162.045 463.648V461.648H159.934L160.048 463.756L162.045 463.648ZM181.053 470.08V468.08H179.514L179.12 469.568L181.053 470.08ZM193.917 470.08L195.834 470.649L196.597 468.08H193.917V470.08ZM162.429 457.776H181.725V453.776H162.429V457.776ZM183.724 455.721C183.616 451.769 182.246 448.651 180.026 446.521C177.823 444.407 174.931 443.408 172.029 443.408V447.408C174.023 447.408 175.883 448.089 177.256 449.407C178.612 450.709 179.642 452.775 179.726 455.831L183.724 455.721ZM172.029 443.408C165.799 443.408 160.976 448.258 160.434 455.629L164.424 455.923C164.842 450.238 168.275 447.408 172.029 447.408V443.408ZM194.589 461.648H162.045V465.648H194.589V461.648ZM160.048 463.756C160.258 467.648 161.479 471.046 163.674 473.501C165.897 475.987 168.994 477.36 172.605 477.36V473.36C170.072 473.36 168.081 472.429 166.656 470.835C165.203 469.21 164.216 466.752 164.042 463.54L160.048 463.756ZM172.605 477.36C177.15 477.36 181.803 475.064 182.986 470.592L179.12 469.568C178.575 471.624 176.124 473.36 172.605 473.36V477.36ZM181.053 472.08H193.917V468.08H181.053V472.08ZM192 469.511C189.385 478.312 182.424 483.248 173.181 483.248V487.248C184.098 487.248 192.689 481.24 195.834 470.649L192 469.511ZM173.181 483.248C165.668 483.248 160.383 481.195 156.944 477.441C153.474 473.654 151.565 467.794 151.565 459.52H147.565C147.565 468.334 149.592 475.338 153.994 480.143C158.427 484.981 164.95 487.248 173.181 487.248V483.248ZM151.565 459.52C151.565 452.597 153.542 447.131 157.015 443.413C160.47 439.713 165.613 437.52 172.413 437.52V433.52C164.717 433.52 158.436 436.031 154.091 440.683C149.764 445.317 147.565 451.851 147.565 459.52H151.565ZM172.413 437.52C179.197 437.52 184.101 439.697 187.372 443.809C190.708 448.003 192.589 454.513 192.589 463.648H196.589C196.589 454.063 194.63 446.509 190.502 441.319C186.309 436.047 180.125 433.52 172.413 433.52V437.52ZM211.382 484V486H213.382V484H211.382ZM198.902 484H196.902V486H198.902V484ZM198.902 419.488V417.488H196.902V419.488H198.902ZM211.382 419.488H213.382V417.488H211.382V419.488ZM211.382 482H198.902V486H211.382V482ZM200.902 484V419.488H196.902V484H200.902ZM198.902 421.488H211.382V417.488H198.902V421.488ZM209.382 419.488V484H213.382V419.488H209.382ZM239.853 476.784C244.094 476.784 247.597 475.419 249.975 472.429C252.283 469.525 253.277 465.398 253.277 460.384H249.277C249.277 464.97 248.351 468.043 246.843 469.939C245.405 471.749 243.196 472.784 239.853 472.784V476.784ZM253.277 460.384C253.277 455.371 252.283 451.262 249.968 448.38C247.586 445.413 244.082 444.08 239.853 444.08V448.08C243.208 448.08 245.416 449.099 246.85 450.884C248.351 452.754 249.277 455.797 249.277 460.384H253.277ZM239.853 444.08C235.624 444.08 232.12 445.413 229.738 448.38C227.423 451.262 226.429 455.371 226.429 460.384H230.429C230.429 455.797 231.355 452.754 232.856 450.884C234.29 449.099 236.498 448.08 239.853 448.08V444.08ZM226.429 460.384C226.429 465.398 227.423 469.525 229.731 472.429C232.109 475.419 235.612 476.784 239.853 476.784V472.784C236.51 472.784 234.301 471.749 232.863 469.939C231.355 468.043 230.429 464.97 230.429 460.384H226.429ZM239.853 483.248C232.683 483.248 227.165 480.87 223.435 476.946C219.691 473.008 217.565 467.321 217.565 460.384H213.565C213.565 468.135 215.951 474.88 220.535 479.702C225.133 484.538 231.759 487.248 239.853 487.248V483.248ZM217.565 460.384C217.565 453.312 219.757 447.629 223.531 443.726C227.297 439.831 232.819 437.52 239.853 437.52V433.52C231.911 433.52 225.289 436.153 220.655 440.946C216.029 445.731 213.565 452.48 213.565 460.384H217.565ZM239.853 437.52C246.789 437.52 252.236 439.806 255.953 443.684C259.68 447.572 261.853 453.255 261.853 460.384H265.853C265.853 452.441 263.418 445.692 258.841 440.916C254.254 436.13 247.701 433.52 239.853 433.52V437.52ZM261.853 460.384C261.853 467.456 259.66 473.143 255.917 477.048C252.183 480.944 246.733 483.248 239.853 483.248V487.248C247.661 487.248 254.211 484.608 258.805 479.816C263.39 475.033 265.853 468.288 265.853 460.384H261.853ZM280.659 506.368V508.368H282.659V506.368H280.659ZM268.371 506.368H266.371V508.368H268.371V506.368ZM268.371 436.768V434.768H266.371V436.768H268.371ZM280.371 436.768L282.371 436.735L282.338 434.768H280.371V436.768ZM280.467 442.528L278.467 442.561L278.581 449.366L282.167 443.582L280.467 442.528ZM280.659 477.856L282.289 476.696L278.659 471.595V477.856H280.659ZM290.643 476.592C294.787 476.592 298.142 475.168 300.371 472.11C302.511 469.175 303.395 465.023 303.395 460H299.395C299.395 464.673 298.551 467.817 297.139 469.754C295.816 471.568 293.795 472.592 290.643 472.592V476.592ZM303.395 460C303.395 455.447 302.207 451.422 300.009 448.482C297.785 445.508 294.55 443.696 290.739 443.696V447.696C293.168 447.696 295.261 448.812 296.805 450.878C298.375 452.978 299.395 456.105 299.395 460H303.395ZM290.739 443.696C283.277 443.696 278.179 450.614 278.179 459.232H282.179C282.179 451.914 286.297 447.696 290.739 447.696V443.696ZM278.179 459.232C278.179 464.538 279.085 468.854 281.169 471.895C283.345 475.069 286.622 476.592 290.643 476.592V472.592C287.752 472.592 285.797 471.571 284.469 469.633C283.049 467.562 282.179 464.198 282.179 459.232H278.179ZM280.659 504.368H268.371V508.368H280.659V504.368ZM270.371 506.368V436.768H266.371V506.368H270.371ZM268.371 438.768H280.371V434.768H268.371V438.768ZM278.371 436.801L278.467 442.561L282.467 442.495L282.371 436.735L278.371 436.801ZM282.167 443.582C284.739 439.433 288.474 437.52 293.619 437.52V433.52C287.244 433.52 282.147 436.023 278.767 441.474L282.167 443.582ZM293.619 437.52C299.005 437.52 303.544 439.629 306.771 443.497C310.024 447.396 312.067 453.24 312.067 460.864H316.067C316.067 452.552 313.838 445.724 309.843 440.935C305.822 436.115 300.137 433.52 293.619 433.52V437.52ZM312.067 460.864C312.067 467.705 310.343 473.332 307.36 477.198C304.418 481.011 300.157 483.248 294.675 483.248V487.248C301.385 487.248 306.82 484.445 310.526 479.642C314.191 474.892 316.067 468.327 316.067 460.864H312.067ZM294.675 483.248C289.49 483.248 285.479 481.181 282.289 476.696L279.029 479.016C282.943 484.515 288.148 487.248 294.675 487.248V483.248ZM278.659 477.856V506.368H282.659V477.856H278.659ZM330.429 455.776L328.434 455.629L328.277 457.776H330.429V455.776ZM349.725 455.776V457.776H351.781L351.724 455.721L349.725 455.776ZM362.589 463.648V465.648H364.589V463.648H362.589ZM330.045 463.648V461.648H327.934L328.048 463.756L330.045 463.648ZM349.053 470.08V468.08H347.514L347.12 469.568L349.053 470.08ZM361.917 470.08L363.834 470.649L364.597 468.08H361.917V470.08ZM330.429 457.776H349.725V453.776H330.429V457.776ZM351.724 455.721C351.616 451.769 350.246 448.651 348.026 446.521C345.823 444.407 342.931 443.408 340.029 443.408V447.408C342.023 447.408 343.883 448.089 345.256 449.407C346.612 450.709 347.642 452.775 347.726 455.831L351.724 455.721ZM340.029 443.408C333.799 443.408 328.976 448.258 328.434 455.629L332.424 455.923C332.842 450.238 336.275 447.408 340.029 447.408V443.408ZM362.589 461.648H330.045V465.648H362.589V461.648ZM328.048 463.756C328.258 467.648 329.479 471.046 331.674 473.501C333.897 475.987 336.994 477.36 340.605 477.36V473.36C338.072 473.36 336.081 472.429 334.656 470.835C333.203 469.21 332.216 466.752 332.042 463.54L328.048 463.756ZM340.605 477.36C345.15 477.36 349.803 475.064 350.986 470.592L347.12 469.568C346.575 471.624 344.124 473.36 340.605 473.36V477.36ZM349.053 472.08H361.917V468.08H349.053V472.08ZM360 469.511C357.385 478.312 350.424 483.248 341.181 483.248V487.248C352.098 487.248 360.689 481.24 363.834 470.649L360 469.511ZM341.181 483.248C333.668 483.248 328.383 481.195 324.944 477.441C321.474 473.654 319.565 467.794 319.565 459.52H315.565C315.565 468.334 317.592 475.338 321.994 480.143C326.427 484.981 332.95 487.248 341.181 487.248V483.248ZM319.565 459.52C319.565 452.597 321.542 447.131 325.015 443.413C328.47 439.713 333.613 437.52 340.413 437.52V433.52C332.717 433.52 326.436 436.031 322.091 440.683C317.764 445.317 315.565 451.851 315.565 459.52H319.565ZM340.413 437.52C347.197 437.52 352.101 439.697 355.372 443.809C358.708 448.003 360.589 454.513 360.589 463.648H364.589C364.589 454.063 362.63 446.509 358.502 441.319C354.309 436.047 348.125 433.52 340.413 433.52V437.52ZM379.382 484V486H381.382V484H379.382ZM366.902 484H364.902V486H366.902V484ZM366.902 436.768V434.768H364.902V436.768H366.902ZM378.614 436.768H380.614V434.768H378.614V436.768ZM378.614 442.432H376.614V449.166L380.29 443.524L378.614 442.432ZM394.262 435.52H396.262V433.52H394.262V435.52ZM394.262 448.288L393.933 450.261L396.262 450.649V448.288H394.262ZM379.382 482H366.902V486H379.382V482ZM368.902 484V436.768H364.902V484H368.902ZM366.902 438.768H378.614V434.768H366.902V438.768ZM376.614 436.768V442.432H380.614V436.768H376.614ZM380.29 443.524C382.159 440.655 384.082 439.222 386.002 438.458C387.981 437.67 390.131 437.52 392.63 437.52V433.52C390.042 433.52 387.247 433.658 384.523 434.742C381.739 435.85 379.198 437.873 376.939 441.34L380.29 443.524ZM392.63 437.52H394.262V433.52H392.63V437.52ZM392.262 435.52V448.288H396.262V435.52H392.262ZM394.591 446.315C393.332 446.105 392.07 446 390.806 446V450C391.847 450 392.889 450.087 393.933 450.261L394.591 446.315ZM390.806 446C386.658 446 383.2 447.039 380.796 449.458C378.393 451.876 377.382 455.33 377.382 459.424H381.382C381.382 455.934 382.243 453.676 383.633 452.278C385.02 450.881 387.275 450 390.806 450V446ZM377.382 459.424V484H381.382V459.424H377.382Z" fill="#0800FF" mask="url(#path-3-outside-1_179_48)"/>
<mask id="path-5-outside-2_179_48" maskUnits="userSpaceOnUse" x="0" y="26" width="390" height="71" fill="black">
<rect fill="white" y="26" width="390" height="71"/>
<path d="M53.856 93H40.416V64.392H15.552V93H2.208V29.256H15.552V53.256H40.416V29.256H53.856V93ZM70.6478 64.776H89.9438C89.7518 57.768 85.1438 54.408 80.2478 54.408C75.2558 54.408 71.1278 58.248 70.6478 64.776ZM102.808 72.648H70.2638C70.6478 79.752 74.6798 84.36 80.8238 84.36C84.8558 84.36 88.4078 82.344 89.2718 79.08H102.136C99.2558 88.776 91.4798 94.248 81.3998 94.248C65.6558 94.248 57.7838 85.608 57.7838 68.52C57.7838 53.928 66.1358 44.52 80.6318 44.52C95.1278 44.52 102.808 53.928 102.808 72.648ZM119.601 93H107.121V28.488H119.601V93ZM137.32 93H124.84V28.488H137.32V93ZM165.791 83.784C173.375 83.784 177.215 78.984 177.215 69.384C177.215 59.784 173.375 55.08 165.791 55.08C158.207 55.08 154.367 59.784 154.367 69.384C154.367 78.984 158.207 83.784 165.791 83.784ZM165.791 94.248C150.527 94.248 141.503 84.072 141.503 69.384C141.503 54.408 150.815 44.52 165.791 44.52C180.575 44.52 189.791 54.312 189.791 69.384C189.791 84.36 180.479 94.248 165.791 94.248ZM230.521 93H217.177V29.256H230.521V93ZM294.623 68.904L286.655 43.56H286.559L278.399 68.904H294.623ZM316.991 93H302.495L298.463 79.848H274.943L270.431 93H256.319L279.071 29.256H294.527L316.991 93ZM387.799 93H375.607V64.392C375.607 58.728 372.631 54.696 368.215 54.696C363.607 54.696 360.247 59.016 360.247 64.776V93H347.767V64.584C347.767 57 345.751 55.08 340.279 55.08C335.287 55.08 332.695 58.152 332.695 64.296V93H320.215V45.768H331.927V52.68C335.095 46.44 339.511 44.52 345.751 44.52C352.183 44.52 355.255 46.536 358.903 52.008C361.495 46.824 365.719 44.52 371.671 44.52C381.175 44.52 387.799 51.432 387.799 60.264V93Z"/>
</mask>
<path d="M53.856 93V95H55.856V93H53.856ZM40.416 93H38.416V95H40.416V93ZM40.416 64.392H42.416V62.392H40.416V64.392ZM15.552 64.392V62.392H13.552V64.392H15.552ZM15.552 93V95H17.552V93H15.552ZM2.208 93H0.208V95H2.208V93ZM2.208 29.256V27.256H0.208V29.256H2.208ZM15.552 29.256H17.552V27.256H15.552V29.256ZM15.552 53.256H13.552V55.256H15.552V53.256ZM40.416 53.256V55.256H42.416V53.256H40.416ZM40.416 29.256V27.256H38.416V29.256H40.416ZM53.856 29.256H55.856V27.256H53.856V29.256ZM53.856 91H40.416V95H53.856V91ZM42.416 93V64.392H38.416V93H42.416ZM40.416 62.392H15.552V66.392H40.416V62.392ZM13.552 64.392V93H17.552V64.392H13.552ZM15.552 91H2.208V95H15.552V91ZM4.208 93V29.256H0.208V93H4.208ZM2.208 31.256H15.552V27.256H2.208V31.256ZM13.552 29.256V53.256H17.552V29.256H13.552ZM15.552 55.256H40.416V51.256H15.552V55.256ZM42.416 53.256V29.256H38.416V53.256H42.416ZM40.416 31.256H53.856V27.256H40.416V31.256ZM51.856 29.256V93H55.856V29.256H51.856ZM70.6478 64.776L68.6531 64.6293L68.4953 66.776H70.6478V64.776ZM89.9438 64.776V66.776H91.9993L91.943 64.7212L89.9438 64.776ZM102.808 72.648V74.648H104.808V72.648H102.808ZM70.2638 72.648V70.648H68.1527L68.2667 72.7559L70.2638 72.648ZM89.2718 79.08V77.08H87.7323L87.3383 78.5682L89.2718 79.08ZM102.136 79.08L104.053 79.6495L104.816 77.08H102.136V79.08ZM70.6478 66.776H89.9438V62.776H70.6478V66.776ZM91.943 64.7212C91.8347 60.7692 90.4644 57.6514 88.2446 55.521C86.0414 53.4066 83.1495 52.408 80.2478 52.408V56.408C82.242 56.408 84.1021 57.0894 85.4749 58.407C86.8311 59.7086 87.8608 61.7748 87.9445 64.8308L91.943 64.7212ZM80.2478 52.408C74.0177 52.408 69.1952 57.2577 68.6531 64.6293L72.6424 64.9227C73.0603 59.2383 76.4938 56.408 80.2478 56.408V52.408ZM102.808 70.648H70.2638V74.648H102.808V70.648ZM68.2667 72.7559C68.477 76.648 69.6975 80.0458 71.8928 82.5011C74.1159 84.9875 77.2127 86.36 80.8238 86.36V82.36C78.2908 82.36 76.2996 81.4285 74.8747 79.8349C73.422 78.2102 72.4345 75.752 72.2608 72.54L68.2667 72.7559ZM80.8238 86.36C85.3684 86.36 90.0214 84.0639 91.2052 79.5918L87.3383 78.5682C86.7941 80.6241 84.3431 82.36 80.8238 82.36V86.36ZM89.2718 81.08H102.136V77.08H89.2718V81.08ZM100.219 78.5105C97.6041 87.3123 90.643 92.248 81.3998 92.248V96.248C92.3165 96.248 100.907 90.2397 104.053 79.6495L100.219 78.5105ZM81.3998 92.248C73.8863 92.248 68.6016 90.1947 65.1624 86.4409C61.6931 82.6543 59.7838 76.7943 59.7838 68.52H55.7838C55.7838 77.3337 57.8104 84.3377 62.2131 89.1431C66.6459 93.9813 73.1692 96.248 81.3998 96.248V92.248ZM59.7838 68.52C59.7838 61.5969 61.761 56.1312 65.2334 52.4131C68.6886 48.7134 73.8322 46.52 80.6318 46.52V42.52C72.9353 42.52 66.6549 45.0306 62.3101 49.6829C57.9825 54.3168 55.7838 60.8511 55.7838 68.52H59.7838ZM80.6318 46.52C87.4158 46.52 92.3202 48.6974 95.5905 52.809C98.9263 57.0029 100.808 63.513 100.808 72.648H104.808C104.808 63.063 102.849 55.5091 98.721 50.319C94.5273 45.0466 88.3437 42.52 80.6318 42.52V46.52ZM119.601 93V95H121.601V93H119.601ZM107.121 93H105.121V95H107.121V93ZM107.121 28.488V26.488H105.121V28.488H107.121ZM119.601 28.488H121.601V26.488H119.601V28.488ZM119.601 91H107.121V95H119.601V91ZM109.121 93V28.488H105.121V93H109.121ZM107.121 30.488H119.601V26.488H107.121V30.488ZM117.601 28.488V93H121.601V28.488H117.601ZM137.32 93V95H139.32V93H137.32ZM124.84 93H122.84V95H124.84V93ZM124.84 28.488V26.488H122.84V28.488H124.84ZM137.32 28.488H139.32V26.488H137.32V28.488ZM137.32 91H124.84V95H137.32V91ZM126.84 93V28.488H122.84V93H126.84ZM124.84 30.488H137.32V26.488H124.84V30.488ZM135.32 28.488V93H139.32V28.488H135.32ZM165.791 85.784C170.032 85.784 173.535 84.4186 175.912 81.4286C178.22 78.5251 179.215 74.3982 179.215 69.384H175.215C175.215 73.9698 174.289 77.0429 172.781 78.9394C171.342 80.7494 169.133 81.784 165.791 81.784V85.784ZM179.215 69.384C179.215 64.3706 178.221 60.2622 175.906 57.3797C173.523 54.4129 170.019 53.08 165.791 53.08V57.08C169.146 57.08 171.354 58.0991 172.787 59.8843C174.288 61.7538 175.215 64.7974 175.215 69.384H179.215ZM165.791 53.08C161.562 53.08 158.058 54.4129 155.675 57.3797C153.36 60.2622 152.367 64.3706 152.367 69.384H156.367C156.367 64.7974 157.293 61.7538 158.794 59.8843C160.227 58.0991 162.435 57.08 165.791 57.08V53.08ZM152.367 69.384C152.367 74.3982 153.361 78.5251 155.669 81.4286C158.046 84.4186 161.549 85.784 165.791 85.784V81.784C162.448 81.784 160.239 80.7494 158.8 78.9394C157.292 77.0429 156.367 73.9698 156.367 69.384H152.367ZM165.791 92.248C158.62 92.248 153.103 89.8705 149.372 85.946C145.628 82.0078 143.503 76.3207 143.503 69.384H139.503C139.503 77.1353 141.889 83.8802 146.473 88.702C151.07 93.5375 157.697 96.248 165.791 96.248V92.248ZM143.503 69.384C143.503 62.3119 145.695 56.6293 149.468 52.7262C153.234 48.8312 158.756 46.52 165.791 46.52V42.52C157.849 42.52 151.227 45.1528 146.593 49.9458C141.966 54.7307 139.503 61.4801 139.503 69.384H143.503ZM165.791 46.52C172.727 46.52 178.173 48.8056 181.891 52.6839C185.617 56.572 187.791 62.2554 187.791 69.384H191.791C191.791 61.4406 189.356 54.692 184.778 49.9161C180.192 45.1304 173.638 42.52 165.791 42.52V46.52ZM187.791 69.384C187.791 76.4564 185.598 82.1429 181.855 86.048C178.12 89.9438 172.67 92.248 165.791 92.248V96.248C173.599 96.248 180.149 93.6082 184.742 88.816C189.327 84.0331 191.791 77.2876 191.791 69.384H187.791ZM230.521 93V95H232.521V93H230.521ZM217.177 93H215.177V95H217.177V93ZM217.177 29.256V27.256H215.177V29.256H217.177ZM230.521 29.256H232.521V27.256H230.521V29.256ZM230.521 91H217.177V95H230.521V91ZM219.177 93V29.256H215.177V93H219.177ZM217.177 31.256H230.521V27.256H217.177V31.256ZM228.521 29.256V93H232.521V29.256H228.521ZM294.623 68.904V70.904H297.349L296.531 68.3042L294.623 68.904ZM286.655 43.56L288.563 42.9602L288.123 41.56H286.655V43.56ZM286.559 43.56V41.56H285.102L284.655 42.947L286.559 43.56ZM278.399 68.904L276.495 68.291L275.654 70.904H278.399V68.904ZM316.991 93V95H319.817L318.878 92.3353L316.991 93ZM302.495 93L300.583 93.5862L301.017 95H302.495V93ZM298.463 79.848L300.375 79.2618L299.942 77.848H298.463V79.848ZM274.943 79.848V77.848H273.515L273.051 79.199L274.943 79.848ZM270.431 93V95H271.86L272.323 93.649L270.431 93ZM256.319 93L254.436 92.3277L253.482 95H256.319V93ZM279.071 29.256V27.256H277.662L277.188 28.5837L279.071 29.256ZM294.527 29.256L296.414 28.5912L295.943 27.256H294.527V29.256ZM296.531 68.3042L288.563 42.9602L284.747 44.1598L292.715 69.5038L296.531 68.3042ZM286.655 41.56H286.559V45.56H286.655V41.56ZM284.655 42.947L276.495 68.291L280.303 69.517L288.463 44.1729L284.655 42.947ZM278.399 70.904H294.623V66.904H278.399V70.904ZM316.991 91H302.495V95H316.991V91ZM304.407 92.4138L300.375 79.2618L296.551 80.4342L300.583 93.5862L304.407 92.4138ZM298.463 77.848H274.943V81.848H298.463V77.848ZM273.051 79.199L268.539 92.351L272.323 93.649L276.835 80.497L273.051 79.199ZM270.431 91H256.319V95H270.431V91ZM258.203 93.6723L280.955 29.9283L277.188 28.5837L254.436 92.3277L258.203 93.6723ZM279.071 31.256H294.527V27.256H279.071V31.256ZM292.641 29.9207L315.105 93.6647L318.878 92.3353L296.414 28.5912L292.641 29.9207ZM387.799 93V95H389.799V93H387.799ZM375.607 93H373.607V95H375.607V93ZM360.247 93V95H362.247V93H360.247ZM347.767 93H345.767V95H347.767V93ZM332.695 93V95H334.695V93H332.695ZM320.215 93H318.215V95H320.215V93ZM320.215 45.768V43.768H318.215V45.768H320.215ZM331.927 45.768H333.927V43.768H331.927V45.768ZM331.927 52.68H329.927L333.71 53.5854L331.927 52.68ZM358.903 52.008L357.239 53.1174L359.15 55.9849L360.692 52.9024L358.903 52.008ZM387.799 91H375.607V95H387.799V91ZM377.607 93V64.392H373.607V93H377.607ZM377.607 64.392C377.607 61.2297 376.778 58.353 375.163 56.2146C373.518 54.0374 371.097 52.696 368.215 52.696V56.696C369.748 56.696 371.023 57.3706 371.971 58.6253C372.948 59.919 373.607 61.8903 373.607 64.392H377.607ZM368.215 52.696C362.082 52.696 358.247 58.3852 358.247 64.776H362.247C362.247 59.6468 365.132 56.696 368.215 56.696V52.696ZM358.247 64.776V93H362.247V64.776H358.247ZM360.247 91H347.767V95H360.247V91ZM349.767 93V64.584H345.767V93H349.767ZM349.767 64.584C349.767 60.7592 349.292 57.7281 347.612 55.7089C345.825 53.5609 343.15 53.08 340.279 53.08V57.08C342.88 57.08 343.948 57.5591 344.537 58.2671C345.233 59.1039 345.767 60.8248 345.767 64.584H349.767ZM340.279 53.08C337.354 53.08 334.821 53.9989 333.074 56.1084C331.385 58.148 330.695 60.9896 330.695 64.296H334.695C334.695 61.4584 335.3 59.692 336.155 58.6596C336.952 57.6971 338.212 57.08 340.279 57.08V53.08ZM330.695 64.296V93H334.695V64.296H330.695ZM332.695 91H320.215V95H332.695V91ZM322.215 93V45.768H318.215V93H322.215ZM320.215 47.768H331.927V43.768H320.215V47.768ZM329.927 45.768V52.68H333.927V45.768H329.927ZM333.71 53.5854C335.156 50.7378 336.799 49.0355 338.654 48.0105C340.532 46.9725 342.823 46.52 345.751 46.52V42.52C342.438 42.52 339.401 43.0275 336.719 44.5095C334.014 46.0045 331.866 48.3822 330.143 51.7746L333.71 53.5854ZM345.751 46.52C348.758 46.52 350.744 46.9912 352.36 47.9377C354.004 48.9006 355.481 50.4803 357.239 53.1174L360.567 50.8986C358.677 48.0637 356.794 45.8994 354.382 44.4863C351.941 43.0568 349.176 42.52 345.751 42.52V46.52ZM360.692 52.9024C361.84 50.6065 363.291 49.0524 365.025 48.0529C366.773 47.0457 368.951 46.52 371.671 46.52V42.52C368.439 42.52 365.528 43.1463 363.028 44.5871C360.515 46.0356 358.558 48.2254 357.114 51.1136L360.692 52.9024ZM371.671 46.52C380.078 46.52 385.799 52.5445 385.799 60.264H389.799C389.799 50.3195 382.271 42.52 371.671 42.52V46.52ZM385.799 60.264V93H389.799V60.264H385.799Z" fill="#0800FF" mask="url(#path-5-outside-2_179_48)"/>
</svg>
